<?xml version="1.0" encoding="utf-8"?>
<svg xmlns="http://www.w3.org/2000/svg" xmlns:xlink="http://www.w3.org/1999/xlink" width="600" height="400" viewBox="0 0 2400 1600">
<defs>
  <clipPath id="clip1200">
    <rect x="0" y="0" width="2000" height="2000"/>
  </clipPath>
</defs>
<defs>
  <clipPath id="clip1201">
    <rect x="0" y="0" width="2400" height="1600"/>
  </clipPath>
</defs>
<polygon clip-path="url(#clip1201)" points="
0,1600 2400,1600 2400,0 0,0 
  " fill="#ffffff" fill-rule="evenodd" fill-opacity="1"/>
<defs>
  <clipPath id="clip1202">
    <rect x="480" y="0" width="1681" height="1600"/>
  </clipPath>
</defs>
<polygon clip-path="url(#clip1201)" points="
237.767,1440.48 2321.26,1440.48 2321.26,125.984 237.767,125.984 
  " fill="#ffffff" fill-rule="evenodd" fill-opacity="1"/>
<defs>
  <clipPath id="clip1203">
    <rect x="237" y="125" width="2084" height="1315"/>
  </clipPath>
</defs>
<polyline clip-path="url(#clip1203)" style="stroke:#000000; stroke-width:2; stroke-opacity:0.1; fill:none" points="
  449.186,1440.48 449.186,125.984 
  "/>
<polyline clip-path="url(#clip1203)" style="stroke:#000000; stroke-width:2; stroke-opacity:0.1; fill:none" points="
  946.679,1440.48 946.679,125.984 
  "/>
<polyline clip-path="url(#clip1203)" style="stroke:#000000; stroke-width:2; stroke-opacity:0.1; fill:none" points="
  1436.15,1440.48 1436.15,125.984 
  "/>
<polyline clip-path="url(#clip1203)" style="stroke:#000000; stroke-width:2; stroke-opacity:0.1; fill:none" points="
  1925.62,1440.48 1925.62,125.984 
  "/>
<polyline clip-path="url(#clip1203)" style="stroke:#000000; stroke-width:2; stroke-opacity:0.1; fill:none" points="
  237.767,1392.65 2321.26,1392.65 
  "/>
<polyline clip-path="url(#clip1203)" style="stroke:#000000; stroke-width:2; stroke-opacity:0.1; fill:none" points="
  237.767,1038.34 2321.26,1038.34 
  "/>
<polyline clip-path="url(#clip1203)" style="stroke:#000000; stroke-width:2; stroke-opacity:0.1; fill:none" points="
  237.767,684.026 2321.26,684.026 
  "/>
<polyline clip-path="url(#clip1203)" style="stroke:#000000; stroke-width:2; stroke-opacity:0.1; fill:none" points="
  237.767,329.714 2321.26,329.714 
  "/>
<polyline clip-path="url(#clip1201)" style="stroke:#000000; stroke-width:4; stroke-opacity:1; fill:none" points="
  237.767,1440.48 2321.26,1440.48 
  "/>
<polyline clip-path="url(#clip1201)" style="stroke:#000000; stroke-width:4; stroke-opacity:1; fill:none" points="
  237.767,1440.48 237.767,125.984 
  "/>
<polyline clip-path="url(#clip1201)" style="stroke:#000000; stroke-width:4; stroke-opacity:1; fill:none" points="
  449.186,1440.48 449.186,1420.77 
  "/>
<polyline clip-path="url(#clip1201)" style="stroke:#000000; stroke-width:4; stroke-opacity:1; fill:none" points="
  946.679,1440.48 946.679,1420.77 
  "/>
<polyline clip-path="url(#clip1201)" style="stroke:#000000; stroke-width:4; stroke-opacity:1; fill:none" points="
  1436.15,1440.48 1436.15,1420.77 
  "/>
<polyline clip-path="url(#clip1201)" style="stroke:#000000; stroke-width:4; stroke-opacity:1; fill:none" points="
  1925.62,1440.48 1925.62,1420.77 
  "/>
<polyline clip-path="url(#clip1201)" style="stroke:#000000; stroke-width:4; stroke-opacity:1; fill:none" points="
  237.767,1392.65 269.02,1392.65 
  "/>
<polyline clip-path="url(#clip1201)" style="stroke:#000000; stroke-width:4; stroke-opacity:1; fill:none" points="
  237.767,1038.34 269.02,1038.34 
  "/>
<polyline clip-path="url(#clip1201)" style="stroke:#000000; stroke-width:4; stroke-opacity:1; fill:none" points="
  237.767,684.026 269.02,684.026 
  "/>
<polyline clip-path="url(#clip1201)" style="stroke:#000000; stroke-width:4; stroke-opacity:1; fill:none" points="
  237.767,329.714 269.02,329.714 
  "/>
<g clip-path="url(#clip1201)">
<text style="fill:#000000; fill-opacity:1; font-family:Arial,Helvetica Neue,Helvetica,sans-serif; font-size:48px; text-anchor:middle;" transform="rotate(0, 449.186, 1494.48)" x="449.186" y="1494.48">2018-07-01</text>
</g>
<g clip-path="url(#clip1201)">
<text style="fill:#000000; fill-opacity:1; font-family:Arial,Helvetica Neue,Helvetica,sans-serif; font-size:48px; text-anchor:middle;" transform="rotate(0, 946.679, 1494.48)" x="946.679" y="1494.48">2018-09-01</text>
</g>
<g clip-path="url(#clip1201)">
<text style="fill:#000000; fill-opacity:1; font-family:Arial,Helvetica Neue,Helvetica,sans-serif; font-size:48px; text-anchor:middle;" transform="rotate(0, 1436.15, 1494.48)" x="1436.15" y="1494.48">2018-11-01</text>
</g>
<g clip-path="url(#clip1201)">
<text style="fill:#000000; fill-opacity:1; font-family:Arial,Helvetica Neue,Helvetica,sans-serif; font-size:48px; text-anchor:middle;" transform="rotate(0, 1925.62, 1494.48)" x="1925.62" y="1494.48">2019-01-01</text>
</g>
<g clip-path="url(#clip1201)">
<text style="fill:#000000; fill-opacity:1; font-family:Arial,Helvetica Neue,Helvetica,sans-serif; font-size:48px; text-anchor:end;" transform="rotate(0, 213.767, 1410.15)" x="213.767" y="1410.15">200</text>
</g>
<g clip-path="url(#clip1201)">
<text style="fill:#000000; fill-opacity:1; font-family:Arial,Helvetica Neue,Helvetica,sans-serif; font-size:48px; text-anchor:end;" transform="rotate(0, 213.767, 1055.84)" x="213.767" y="1055.84">300</text>
</g>
<g clip-path="url(#clip1201)">
<text style="fill:#000000; fill-opacity:1; font-family:Arial,Helvetica Neue,Helvetica,sans-serif; font-size:48px; text-anchor:end;" transform="rotate(0, 213.767, 701.526)" x="213.767" y="701.526">400</text>
</g>
<g clip-path="url(#clip1201)">
<text style="fill:#000000; fill-opacity:1; font-family:Arial,Helvetica Neue,Helvetica,sans-serif; font-size:48px; text-anchor:end;" transform="rotate(0, 213.767, 347.214)" x="213.767" y="347.214">500</text>
</g>
<g clip-path="url(#clip1201)">
<text style="fill:#000000; fill-opacity:1; font-family:Arial,Helvetica Neue,Helvetica,sans-serif; font-size:84px; text-anchor:middle;" transform="rotate(0, 1279.51, 73.2)" x="1279.51" y="73.2">Gesamtnutzer im Ulmer Freifunknetz</text>
</g>
<g clip-path="url(#clip1201)">
<text style="fill:#000000; fill-opacity:1; font-family:Arial,Helvetica Neue,Helvetica,sans-serif; font-size:66px; text-anchor:middle;" transform="rotate(0, 1279.51, 1590.4)" x="1279.51" y="1590.4">Datum</text>
</g>
<g clip-path="url(#clip1201)">
<text style="fill:#000000; fill-opacity:1; font-family:Arial,Helvetica Neue,Helvetica,sans-serif; font-size:66px; text-anchor:middle;" transform="rotate(-90, 57.6, 783.233)" x="57.6" y="783.233">Nutzer</text>
</g>
<polyline clip-path="url(#clip1203)" style="stroke:#008000; stroke-width:4; stroke-opacity:1; fill:none" points="
  296.734,935.588 297.063,960.39 297.397,956.846 297.732,1017.08 298.066,1041.88 298.4,1052.51 298.735,1070.23 299.069,974.562 299.403,946.217 299.738,921.415 
  300.072,995.821 300.406,953.303 300.741,921.415 301.075,917.872 301.409,864.725 301.744,786.777 302.078,875.355 302.747,776.147 303.081,737.173 303.415,602.534 
  303.75,542.301 304.084,584.819 304.418,708.828 304.753,825.751 305.087,882.441 305.421,939.131 305.756,974.562 306.09,981.648 306.424,1024.17 306.759,1024.17 
  307.093,978.105 307.427,1024.17 307.762,939.131 308.096,935.588 308.43,808.035 308.765,885.984 309.099,917.872 309.433,847.01 309.768,861.182 310.102,694.655 
  310.436,662.767 311.105,761.975 311.439,613.164 311.774,609.62 312.108,648.595 312.777,871.811 313.111,914.329 313.445,946.217 314.114,953.303 314.448,1020.62 
  314.783,1002.91 315.117,953.303 315.786,924.958 316.12,910.786 316.454,815.122 316.789,935.588 317.123,946.217 317.457,896.613 317.792,868.268 318.46,825.751 
  318.795,822.208 319.129,804.492 319.463,747.802 319.798,691.112 320.132,627.336 320.466,747.802 320.801,854.096 321.135,921.415 321.469,995.821 321.804,995.821 
  322.138,1034.8 322.472,1233.21 322.807,1219.04 323.141,1070.23 323.475,1027.71 323.81,921.415 324.144,857.639 324.478,854.096 324.813,843.467 325.147,882.441 
  325.481,1009.99 325.816,811.578 326.15,804.492 326.484,691.112 326.819,701.742 327.153,730.087 327.487,669.854 327.822,613.164 328.491,613.164 328.825,747.802 
  329.159,829.294 329.828,939.131 330.162,974.562 330.497,1013.54 330.831,1017.08 331.165,992.278 331.5,935.588 332.168,779.69 332.503,765.518 332.837,680.483 
  333.171,776.147 333.506,758.432 333.84,733.63 334.174,769.061 334.509,751.345 334.843,744.259 335.177,659.224 335.512,616.707 335.846,556.474 336.515,524.586 
  336.849,474.982 337.183,634.422 338.186,825.751 338.521,921.415 338.855,928.501 339.189,939.131 339.858,776.147 340.527,595.448 340.861,411.206 341.195,411.206 
  341.53,425.378 341.864,400.576 342.198,478.525 342.533,474.982 342.867,368.688 343.201,414.749 343.536,560.017 343.87,652.138 344.204,804.492 344.539,815.122 
  344.873,854.096 345.207,967.476 345.542,935.588 345.876,1002.91 346.21,995.821 346.545,1013.54 346.879,1013.54 347.213,914.329 347.548,868.268 347.882,900.156 
  348.216,910.786 348.551,811.578 348.885,769.061 349.219,719.457 349.554,765.518 349.888,733.63 350.222,648.595 350.557,740.716 350.891,723 351.225,715.914 
  351.56,708.828 351.894,634.422 352.228,719.457 352.563,712.371 352.897,800.949 353.231,921.415 353.566,978.105 353.9,1002.91 354.234,1045.42 354.569,978.105 
  354.903,956.846 355.237,875.355 355.572,953.303 356.24,861.182 356.575,843.467 356.909,836.38 357.578,800.949 357.912,804.492 358.246,822.208 358.581,723 
  358.915,737.173 359.249,623.793 359.584,715.914 359.918,740.716 360.252,577.732 360.587,680.483 360.921,776.147 361.255,839.923 361.59,903.7 361.924,949.76 
  362.258,1002.91 362.593,1204.86 362.927,1098.57 363.262,956.846 363.596,956.846 363.93,882.441 364.265,769.061 364.599,684.026 364.933,800.949 365.268,829.294 
  365.602,761.975 365.936,779.69 366.605,740.716 366.939,772.604 367.274,751.345 367.608,701.742 368.945,730.087 369.28,808.035 369.614,956.846 370.283,939.131 
  370.617,956.846 370.951,935.588 371.286,900.156 371.62,832.837 371.954,793.863 372.623,733.63 372.957,822.208 373.292,793.863 373.626,800.949 373.96,847.01 
  374.295,730.087 374.629,765.518 374.963,758.432 375.298,705.285 375.632,712.371 375.966,591.905 376.301,662.767 376.635,687.569 376.969,779.69 377.304,921.415 
  377.638,978.105 377.972,999.364 378.307,995.821 378.641,974.562 378.975,978.105 379.644,960.39 379.978,882.441 380.313,928.501 380.647,854.096 380.981,797.406 
  381.316,715.914 381.65,839.923 381.984,797.406 382.319,712.371 382.653,701.742 382.987,765.518 383.322,723 383.656,606.077 383.99,517.499 384.325,496.241 
  384.993,613.164 385.328,754.888 386.331,893.07 386.665,907.243 386.999,935.588 387.334,928.501 387.668,893.07 388.002,861.182 388.337,793.863 388.671,786.777 
  389.005,779.69 389.34,747.802 389.674,761.975 390.008,744.259 390.343,832.837 390.677,832.837 391.011,761.975 391.346,758.432 391.68,761.975 392.014,595.448 
  392.349,655.681 392.683,581.275 393.017,630.879 393.352,786.777 393.686,808.035 394.02,885.984 394.355,900.156 394.689,882.441 395.023,914.329 395.358,935.588 
  395.692,864.725 396.026,815.122 396.361,857.639 396.695,811.578 397.029,843.467 397.364,779.69 397.698,779.69 398.033,804.492 398.367,811.578 398.701,808.035 
  399.036,751.345 399.37,793.863 399.704,641.509 400.039,793.863 400.373,740.716 400.707,836.38 401.042,921.415 401.376,928.501 401.71,960.39 402.045,967.476 
  402.379,988.735 402.713,1254.47 403.048,1162.35 403.382,1020.62 403.716,1045.42 404.051,924.958 404.385,974.562 404.719,917.872 405.054,850.553 405.388,885.984 
  405.722,953.303 406.057,832.837 406.391,719.457 406.725,800.949 407.06,829.294 407.728,797.406 408.063,815.122 408.397,726.543 408.731,765.518 409.066,818.665 
  409.4,956.846 410.069,1013.54 410.403,985.191 410.737,1063.14 411.072,1059.6 411.406,971.019 411.74,992.278 412.075,981.648 412.409,981.648 412.743,999.364 
  413.078,1013.54 413.746,765.518 414.081,765.518 414.415,715.914 414.749,772.604 415.084,705.285 415.418,627.336 415.752,634.422 416.087,574.189 416.755,627.336 
  417.09,818.665 417.424,907.243 417.758,953.303 418.093,981.648 418.427,995.821 418.761,1024.17 419.096,1041.88 419.43,981.648 419.764,1034.8 420.099,932.045 
  420.433,900.156 420.767,790.32 421.102,836.38 421.436,907.243 421.77,839.923 422.105,669.854 422.439,524.586 423.108,581.275 423.442,609.62 423.776,598.991 
  424.111,652.138 424.445,662.767 424.779,744.259 425.114,907.243 425.448,917.872 425.782,956.846 426.117,999.364 426.451,1017.08 426.785,1063.14 427.12,995.821 
  427.454,949.76 427.788,995.821 428.123,978.105 428.457,854.096 428.791,843.467 429.126,921.415 429.46,825.751 429.794,822.208 430.129,864.725 430.463,758.432 
  430.797,793.863 431.132,627.336 431.466,606.077 431.8,687.569 432.135,662.767 432.469,719.457 432.804,730.087 433.138,854.096 433.807,1017.08 434.141,1013.54 
  434.475,1006.45 434.81,1020.62 435.144,999.364 435.478,995.821 435.813,988.735 436.147,910.786 436.481,974.562 437.15,932.045 437.484,815.122 437.819,857.639 
  438.153,825.751 438.487,804.492 438.822,822.208 439.156,761.975 439.49,776.147 439.825,733.63 440.159,669.854 440.493,613.164 440.828,616.707 441.162,740.716 
  441.496,808.035 441.831,903.7 442.165,900.156 442.499,949.76 442.834,1165.89 443.168,1180.06 443.502,1134 443.837,1070.23 444.171,1045.42 444.505,981.648 
  444.84,939.131 445.174,949.76 445.843,917.872 446.511,847.01 446.846,793.863 447.18,797.406 447.514,694.655 447.849,630.879 448.183,556.474 448.517,549.387 
  448.852,535.215 449.186,655.681 449.52,641.509 449.855,733.63 450.189,790.32 450.523,868.268 451.192,949.76 451.526,917.872 451.861,871.811 452.195,779.69 
  452.529,786.777 452.864,836.38 453.198,737.173 453.532,715.914 453.867,630.879 454.201,659.224 454.535,694.655 455.204,669.854 455.538,620.25 455.873,691.112 
  456.207,730.087 456.541,652.138 456.876,676.94 457.21,776.147 457.544,822.208 457.879,893.07 458.213,939.131 458.547,967.476 458.882,988.735 459.216,963.933 
  459.55,882.441 459.885,832.837 460.219,843.467 460.553,868.268 460.888,885.984 461.222,864.725 461.891,893.07 462.225,776.147 462.559,652.138 462.894,645.052 
  463.228,705.285 463.562,786.777 463.897,680.483 464.231,602.534 464.565,613.164 464.9,684.026 465.234,740.716 465.903,967.476 466.237,917.872 466.571,960.39 
  466.906,981.648 467.24,974.562 467.575,967.476 467.909,978.105 468.243,949.76 468.578,882.441 468.912,917.872 469.246,783.233 470.249,829.294 470.584,783.233 
  470.918,730.087 471.252,691.112 471.587,712.371 472.255,510.413 472.59,467.896 473.258,705.285 473.593,854.096 473.927,910.786 474.261,900.156 474.596,935.588 
  474.93,967.476 475.264,932.045 475.599,953.303 475.933,861.182 476.267,808.035 476.936,637.965 477.27,744.259 477.605,839.923 477.939,939.131 478.273,808.035 
  478.608,776.147 478.942,772.604 479.276,669.854 479.945,471.439 480.279,404.119 480.614,428.921 480.948,584.819 481.282,687.569 481.617,786.777 481.951,885.984 
  482.285,889.527 482.62,974.562 482.954,1134 483.288,1091.49 483.623,999.364 483.957,1073.77 484.291,1002.91 484.626,847.01 485.294,924.958 485.629,903.7 
  485.963,914.329 486.297,900.156 486.632,822.208 486.966,694.655 487.3,666.31 487.635,726.543 487.969,659.224 488.638,556.474 488.972,691.112 489.306,797.406 
  489.641,878.898 489.975,847.01 490.309,924.958 490.644,914.329 490.978,946.217 491.312,956.846 491.647,960.39 491.981,914.329 492.315,800.949 492.65,818.665 
  492.984,754.888 493.318,857.639 493.653,740.716 493.987,839.923 494.321,684.026 494.656,744.259 495.324,740.716 495.993,645.052 496.327,503.327 496.662,552.93 
  496.996,581.275 497.33,676.94 497.999,868.268 498.333,917.872 498.668,928.501 499.002,949.76 499.336,971.019 499.671,1024.17 500.005,946.217 500.339,917.872 
  500.674,815.122 501.008,847.01 501.342,818.665 501.677,786.777 502.011,808.035 502.346,779.69 502.68,825.751 503.014,843.467 503.349,740.716 503.683,776.147 
  504.686,570.646 505.02,517.499 505.355,570.646 505.689,701.742 506.023,733.63 506.358,885.984 506.692,903.7 507.026,960.39 507.361,963.933 507.695,935.588 
  508.029,889.527 508.364,832.837 508.698,843.467 509.032,676.94 509.367,680.483 509.701,708.828 510.035,761.975 510.37,737.173 510.704,719.457 511.038,666.31 
  511.373,712.371 511.707,712.371 512.041,595.448 512.376,630.879 512.71,630.879 513.044,637.965 513.379,793.863 513.713,910.786 514.047,974.562 514.382,946.217 
  514.716,985.191 515.05,992.278 515.385,963.933 515.719,896.613 516.053,900.156 516.388,903.7 516.722,843.467 517.056,839.923 517.391,885.984 517.725,917.872 
  518.059,769.061 518.394,708.828 518.728,684.026 519.062,769.061 519.397,730.087 519.731,588.362 520.065,552.93 520.4,496.241 520.734,542.301 521.068,556.474 
  521.403,730.087 521.737,839.923 522.071,878.898 522.406,953.303 522.74,988.735 523.074,1169.43 523.409,1059.6 523.743,1002.91 524.077,935.588 524.412,893.07 
  524.746,836.38 525.08,708.828 525.749,900.156 526.083,882.441 526.418,815.122 526.752,701.742 527.086,641.509 527.421,676.94 527.755,595.448 528.089,521.042 
  528.424,446.637 528.758,552.93 529.092,676.94 529.427,761.975 529.761,871.811 530.095,1009.99 530.43,978.105 530.764,978.105 531.098,981.648 531.767,907.243 
  532.101,854.096 532.436,836.38 532.77,705.285 533.104,652.138 534.107,829.294 534.776,772.604 535.11,804.492 535.445,634.422 535.779,549.387 536.113,496.241 
  536.448,418.292 536.782,393.49 537.117,446.637 537.451,676.94 537.785,783.233 538.454,864.725 538.788,875.355 539.123,942.674 539.457,882.441 539.791,847.01 
  540.126,843.467 540.46,811.578 540.794,662.767 541.463,733.63 541.797,740.716 542.132,857.639 542.466,800.949 542.8,669.854 543.135,595.448 543.469,620.25 
  543.803,591.905 544.138,556.474 544.472,510.413 544.806,499.784 545.141,563.56 545.475,708.828 545.809,772.604 546.144,875.355 546.812,928.501 547.147,949.76 
  547.481,896.613 547.815,804.492 548.15,740.716 548.484,779.69 548.818,726.543 549.153,779.69 549.487,769.061 549.821,776.147 550.156,765.518 550.49,758.432 
  550.824,779.69 551.159,687.569 551.493,676.94 551.827,623.793 552.162,577.732 552.496,567.103 552.83,510.413 553.165,581.275 553.499,567.103 553.833,627.336 
  554.168,772.604 554.502,847.01 554.836,818.665 555.171,832.837 555.505,875.355 555.839,861.182 556.842,719.457 557.177,712.371 557.511,673.397 557.845,701.742 
  558.18,708.828 558.514,818.665 558.848,737.173 559.183,737.173 559.517,669.854 559.851,595.448 560.186,595.448 560.52,535.215 560.854,460.809 561.189,421.835 
  561.523,538.758 561.857,648.595 562.192,701.742 562.526,825.751 562.86,903.7 563.529,1063.14 563.863,1006.45 564.198,967.476 564.532,811.578 564.866,758.432 
  565.201,691.112 565.535,662.767 565.869,659.224 566.204,733.63 566.538,652.138 566.872,669.854 567.207,588.362 567.541,489.154 567.875,350.973 568.21,450.18 
  568.544,453.723 569.213,513.956 569.881,772.604 570.216,804.492 570.55,843.467 570.884,900.156 571.219,932.045 571.553,871.811 572.222,832.837 572.556,705.285 
  572.891,737.173 573.225,662.767 573.559,871.811 573.894,797.406 574.228,740.716 574.562,769.061 574.897,676.94 575.231,648.595 575.565,627.336 575.9,595.448 
  576.234,552.93 576.568,482.068 576.903,517.499 577.237,673.397 577.571,698.198 577.906,772.604 578.24,829.294 578.574,885.984 578.909,917.872 579.243,935.588 
  579.577,910.786 579.912,857.639 580.246,921.415 580.58,907.243 580.915,793.863 581.249,800.949 581.583,790.32 581.918,779.69 582.252,776.147 582.586,769.061 
  582.921,673.397 583.255,730.087 583.589,684.026 583.924,581.275 584.258,552.93 584.592,517.499 584.927,439.551 585.595,641.509 585.93,737.173 586.264,747.802 
  586.598,811.578 586.933,871.811 587.267,885.984 587.601,847.01 587.936,811.578 588.27,843.467 588.604,783.233 588.939,744.259 589.273,680.483 589.607,662.767 
  589.942,655.681 590.276,825.751 590.61,719.457 590.945,691.112 591.279,570.646 591.613,542.301 591.948,598.991 592.282,411.206 592.616,329.714 592.951,375.774 
  593.619,694.655 593.954,744.259 594.288,811.578 594.622,896.613 594.957,900.156 595.291,903.7 595.625,861.182 595.96,839.923 596.294,790.32 596.628,708.828 
  596.963,659.224 597.297,645.052 597.631,705.285 597.966,779.69 598.3,786.777 598.634,744.259 598.969,786.777 599.303,737.173 599.637,694.655 599.972,613.164 
  600.306,570.646 600.64,443.094 600.975,549.387 601.309,634.422 601.643,652.138 601.978,737.173 602.312,829.294 602.646,822.208 602.981,885.984 603.315,1052.51 
  603.649,939.131 603.984,893.07 604.318,864.725 604.652,733.63 605.321,804.492 605.655,893.07 606.324,832.837 606.659,705.285 606.993,684.026 607.327,513.956 
  607.662,492.697 607.996,485.611 608.33,549.387 608.665,556.474 608.999,545.844 609.333,567.103 609.668,524.586 610.336,645.052 610.671,723 611.339,839.923 
  611.674,868.268 612.008,854.096 612.342,779.69 612.677,758.432 613.011,673.397 613.345,637.965 613.68,715.914 614.014,701.742 614.348,620.25 614.683,652.138 
  615.017,705.285 615.351,606.077 615.686,645.052 616.02,680.483 616.354,630.879 616.689,634.422 617.357,521.042 618.026,609.62 618.36,662.767 618.695,715.914 
  619.029,783.233 619.363,854.096 619.698,847.01 620.032,800.949 620.701,676.94 621.035,652.138 621.369,637.965 621.704,499.784 622.038,556.474 622.372,637.965 
  622.707,634.422 623.041,591.905 623.375,552.93 623.71,506.87 624.044,535.215 624.378,591.905 624.713,513.956 625.047,556.474 625.381,613.164 625.716,652.138 
  626.05,754.888 626.384,825.751 626.719,800.949 627.053,903.7 627.387,939.131 627.722,878.898 628.056,825.751 628.39,878.898 628.725,698.198 629.059,737.173 
  629.393,712.371 629.728,652.138 630.062,783.233 630.396,800.949 630.731,779.69 631.065,708.828 631.399,542.301 631.734,510.413 632.068,517.499 632.402,464.352 
  632.737,407.662 633.071,397.033 633.405,467.896 633.74,680.483 634.074,779.69 634.408,804.492 635.077,900.156 635.411,935.588 635.746,914.329 636.08,882.441 
  636.414,907.243 636.749,769.061 637.083,740.716 637.417,744.259 637.752,740.716 638.086,701.742 638.42,850.553 638.755,811.578 639.089,754.888 639.758,630.879 
  640.092,443.094 640.426,499.784 640.761,418.292 641.095,453.723 641.43,503.327 641.764,655.681 642.098,751.345 642.433,864.725 642.767,850.553 643.436,1130.46 
  643.77,1027.71 644.104,949.76 644.439,917.872 644.773,825.751 645.107,843.467 645.442,857.639 645.776,793.863 646.11,875.355 646.445,971.019 646.779,903.7 
  647.113,850.553 647.448,808.035 647.782,712.371 648.116,623.793 648.451,517.499 648.785,567.103 649.119,510.413 649.454,538.758 649.788,673.397 650.122,694.655 
  650.457,804.492 650.791,815.122 651.125,861.182 651.46,896.613 651.794,907.243 652.128,942.674 652.463,924.958 652.797,733.63 653.131,662.767 653.466,733.63 
  653.8,726.543 654.134,839.923 654.469,847.01 654.803,843.467 655.137,836.38 655.472,811.578 655.806,804.492 656.14,719.457 656.475,669.854 656.809,655.681 
  657.143,492.697 657.478,613.164 657.812,655.681 658.146,726.543 658.481,808.035 658.815,875.355 659.149,893.07 659.484,917.872 659.818,935.588 660.152,928.501 
  660.821,815.122 661.49,843.467 661.824,808.035 662.158,829.294 662.493,889.527 662.827,776.147 663.161,786.777 663.496,761.975 663.83,655.681 664.499,496.241 
  664.833,450.18 665.167,319.084 665.502,375.774 665.836,535.215 666.17,715.914 666.505,719.457 666.839,790.32 667.173,868.268 667.508,928.501 667.842,942.674 
  668.176,893.07 668.845,829.294 669.179,726.543 669.514,896.613 669.848,924.958 670.182,875.355 670.517,761.975 670.851,868.268 671.185,917.872 671.52,839.923 
  671.854,793.863 672.188,730.087 672.523,712.371 672.857,687.569 673.191,662.767 673.526,772.604 673.86,740.716 674.194,761.975 674.529,793.863 674.863,822.208 
  675.197,878.898 675.532,907.243 675.866,946.217 676.201,903.7 676.535,932.045 676.869,900.156 677.204,893.07 677.538,847.01 677.872,705.285 678.207,669.854 
  678.541,694.655 679.21,730.087 679.544,691.112 679.878,588.362 680.213,556.474 680.547,613.164 680.881,609.62 681.216,659.224 681.55,655.681 681.884,676.94 
  682.219,715.914 682.553,836.38 682.887,885.984 683.222,910.786 683.556,1066.68 683.89,992.278 684.225,971.019 684.559,843.467 684.893,786.777 685.228,584.819 
  685.562,698.198 686.231,790.32 686.565,765.518 686.899,776.147 687.234,740.716 687.568,687.569 687.902,715.914 688.237,708.828 688.571,609.62 688.905,528.129 
  689.574,637.965 689.908,676.94 690.577,847.01 690.911,850.553 691.246,864.725 691.58,907.243 691.914,893.07 692.249,921.415 692.583,850.553 692.917,790.32 
  693.252,680.483 693.92,864.725 694.255,804.492 694.589,878.898 694.923,836.38 695.258,808.035 695.592,885.984 695.926,800.949 696.261,723 696.595,708.828 
  697.264,570.646 697.598,623.793 697.932,684.026 698.267,723 698.601,786.777 699.27,924.958 699.604,924.958 699.938,949.76 700.273,967.476 700.607,1006.45 
  700.941,769.061 701.276,779.69 701.61,754.888 701.944,701.742 702.279,765.518 702.613,847.01 702.947,864.725 703.282,726.543 703.616,815.122 703.95,715.914 
  704.619,464.352 704.953,251.765 705.288,464.352 705.622,492.697 705.956,609.62 706.291,609.62 706.959,808.035 707.294,783.233 707.628,786.777 707.962,847.01 
  708.297,868.268 708.631,829.294 708.965,691.112 709.3,602.534 709.968,659.224 710.303,715.914 710.637,769.061 710.972,705.285 711.306,772.604 711.64,701.742 
  711.975,723 712.309,701.742 712.643,637.965 712.978,584.819 713.312,453.723 713.646,517.499 713.981,613.164 714.315,669.854 714.649,662.767 714.984,733.63 
  715.318,790.32 715.652,832.837 715.987,893.07 716.321,850.553 717.324,740.716 717.658,754.888 717.993,797.406 718.661,790.32 718.996,790.32 719.33,772.604 
  719.664,765.518 719.999,772.604 720.333,747.802 720.667,684.026 721.002,577.732 721.336,428.921 721.67,503.327 722.005,609.62 722.339,691.112 722.673,751.345 
  723.008,744.259 723.342,790.32 724.011,878.898 724.345,900.156 725.014,793.863 725.348,804.492 725.682,825.751 726.017,818.665 726.351,797.406 726.685,829.294 
  727.02,733.63 727.354,836.38 727.688,808.035 728.023,818.665 728.357,666.31 728.691,570.646 729.026,464.352 729.36,372.231 729.694,428.921 730.029,467.896 
  730.363,591.905 730.697,737.173 731.032,754.888 731.366,758.432 731.7,978.105 732.035,871.811 732.369,836.38 732.703,893.07 733.038,680.483 733.372,684.026 
  733.706,701.742 734.041,595.448 734.375,616.707 734.709,581.275 735.044,684.026 735.378,698.198 735.712,684.026 736.047,602.534 736.381,513.956 736.715,453.723 
  737.05,531.672 737.718,560.017 738.387,758.432 738.721,815.122 739.056,893.07 739.39,921.415 739.724,978.105 740.059,946.217 741.062,737.173 741.396,595.448 
  741.73,659.224 742.065,676.94 742.399,694.655 742.733,687.569 743.068,769.061 743.402,800.949 743.736,765.518 744.071,847.01 744.405,825.751 744.74,708.828 
  745.074,591.905 745.408,645.052 745.743,662.767 746.077,747.802 746.411,811.578 746.746,825.751 747.08,875.355 747.414,917.872 747.749,932.045 748.083,917.872 
  748.417,971.019 749.42,800.949 749.755,811.578 750.089,783.233 750.423,847.01 750.758,850.553 751.092,772.604 751.426,701.742 751.761,652.138 752.095,708.828 
  752.429,691.112 752.764,652.138 753.098,563.56 753.432,659.224 753.767,765.518 754.101,839.923 754.435,864.725 754.77,889.527 755.438,999.364 755.773,1027.71 
  756.107,1041.88 756.441,1038.34 756.776,1006.45 757.11,854.096 757.444,793.863 757.779,847.01 758.113,832.837 758.447,878.898 758.782,893.07 759.116,832.837 
  759.45,829.294 759.785,811.578 760.119,666.31 760.453,570.646 760.788,510.413 761.122,464.352 761.456,482.068 761.791,563.56 762.125,634.422 762.459,776.147 
  762.794,808.035 763.128,885.984 763.462,903.7 763.797,960.39 764.131,960.39 764.465,921.415 764.8,882.441 765.134,797.406 765.468,786.777 765.803,818.665 
  766.137,871.811 766.471,758.432 766.806,797.406 767.14,811.578 767.809,836.38 768.143,687.569 768.477,659.224 768.812,659.224 769.146,506.87 769.48,467.896 
  769.815,598.991 770.149,708.828 770.483,758.432 770.818,836.38 771.486,907.243 771.821,1116.29 772.155,1034.8 772.489,1034.8 772.824,967.476 773.158,797.406 
  773.492,822.208 773.827,850.553 774.161,850.553 774.495,882.441 774.83,967.476 775.164,907.243 775.498,861.182 775.833,836.38 776.501,836.38 776.836,740.716 
  777.17,652.138 777.504,606.077 777.839,652.138 778.173,793.863 778.842,839.923 779.176,928.501 779.511,928.501 779.845,978.105 780.179,995.821 780.514,1024.17 
  780.848,960.39 781.182,924.958 781.517,924.958 781.851,811.578 782.185,839.923 782.52,861.182 782.854,804.492 783.188,836.38 783.523,776.147 784.191,694.655 
  784.526,747.802 784.86,839.923 785.194,645.052 785.529,545.844 785.863,591.905 786.197,591.905 786.532,673.397 786.866,829.294 787.2,829.294 787.535,921.415 
  787.869,1031.25 788.203,1073.77 788.538,981.648 788.872,999.364 789.206,868.268 789.541,861.182 789.875,822.208 790.209,861.182 790.544,790.32 790.878,790.32 
  791.212,808.035 791.547,723 791.881,648.595 792.215,645.052 792.55,606.077 792.884,652.138 793.218,570.646 793.553,581.275 793.887,602.534 794.221,676.94 
  794.556,783.233 794.89,861.182 795.224,949.76 795.559,939.131 795.893,974.562 796.227,978.105 796.562,995.821 796.896,871.811 797.23,769.061 797.565,772.604 
  797.899,779.69 798.233,776.147 798.568,882.441 798.902,885.984 799.236,878.898 799.571,740.716 799.905,680.483 800.239,584.819 800.574,652.138 800.908,581.275 
  801.242,570.646 801.577,521.042 801.911,623.793 802.245,694.655 802.58,825.751 802.914,893.07 803.248,981.648 803.583,1034.8 803.917,1024.17 804.251,1048.97 
  804.586,1052.51 804.92,942.674 805.254,868.268 805.589,832.837 805.923,921.415 806.257,928.501 806.592,864.725 806.926,864.725 807.26,900.156 807.595,857.639 
  807.929,900.156 808.263,793.863 808.598,676.94 808.932,719.457 809.266,634.422 809.601,517.499 809.935,634.422 810.269,715.914 810.604,779.69 810.938,857.639 
  811.272,924.958 811.607,932.045 811.941,1172.98 812.61,1105.66 812.944,1038.34 813.613,903.7 813.947,885.984 814.282,751.345 814.616,875.355 814.95,861.182 
  815.285,800.949 815.619,804.492 815.953,815.122 816.288,676.94 816.622,701.742 816.956,634.422 817.291,595.448 817.625,602.534 817.959,637.965 818.294,606.077 
  818.628,680.483 818.962,723 819.297,811.578 819.631,885.984 819.965,928.501 820.3,967.476 820.634,960.39 820.968,932.045 821.303,893.07 821.637,822.208 
  821.971,861.182 822.306,793.863 822.64,822.208 822.974,882.441 823.309,822.208 823.643,740.716 823.977,680.483 824.312,510.413 824.646,591.905 825.315,602.534 
  825.649,560.017 825.983,563.56 826.318,659.224 826.652,737.173 827.321,808.035 827.655,850.553 827.989,875.355 828.324,907.243 828.658,928.501 828.992,893.07 
  829.327,666.31 829.661,733.63 829.995,776.147 830.33,800.949 830.664,719.457 830.998,829.294 831.333,843.467 831.667,751.345 832.001,694.655 832.336,584.819 
  832.67,684.026 833.004,616.707 833.339,602.534 833.673,439.551 834.007,460.809 834.342,627.336 834.676,705.285 835.01,737.173 835.345,797.406 835.679,829.294 
  836.013,864.725 836.348,893.07 836.682,900.156 837.016,889.527 837.685,800.949 838.019,808.035 838.688,779.69 839.022,776.147 839.357,847.01 839.691,815.122 
  840.025,868.268 840.36,832.837 840.694,786.777 841.028,786.777 841.363,563.56 841.697,609.62 842.031,581.275 842.366,598.991 842.7,723 843.034,747.802 
  843.369,829.294 843.703,843.467 844.037,939.131 844.372,942.674 844.706,900.156 845.04,857.639 845.375,825.751 845.709,839.923 846.043,790.32 846.712,708.828 
  847.046,680.483 847.381,648.595 847.715,737.173 848.049,584.819 848.384,613.164 848.718,609.62 849.387,623.793 849.721,552.93 850.39,730.087 850.724,772.604 
  851.059,829.294 851.393,889.527 851.727,885.984 852.062,1084.4 852.396,1080.86 852.73,1034.8 853.065,981.648 853.399,857.639 853.733,854.096 854.068,907.243 
  854.402,857.639 854.736,878.898 855.405,815.122 855.739,776.147 856.074,800.949 856.408,740.716 856.742,680.483 857.411,567.103 857.745,510.413 858.08,570.646 
  858.414,637.965 858.748,726.543 859.083,804.492 859.417,808.035 859.751,889.527 860.086,896.613 860.42,907.243 860.754,992.278 861.089,967.476 861.423,808.035 
  861.757,793.863 862.092,822.208 862.426,847.01 862.76,790.32 863.095,868.268 863.429,811.578 863.763,818.665 864.098,744.259 864.432,701.742 864.766,627.336 
  865.101,613.164 865.435,510.413 865.769,443.094 866.104,560.017 866.438,669.854 866.772,772.604 867.107,829.294 867.441,843.467 867.775,857.639 868.11,928.501 
  868.444,928.501 868.778,967.476 869.113,875.355 869.447,822.208 869.781,811.578 870.45,786.777 871.119,868.268 871.453,882.441 871.787,836.38 872.122,871.811 
  872.456,808.035 872.79,793.863 873.125,744.259 873.459,613.164 873.793,521.042 874.128,606.077 874.462,641.509 874.796,754.888 875.131,829.294 875.799,900.156 
  876.134,928.501 876.468,974.562 876.802,963.933 877.137,963.933 877.471,800.949 877.805,811.578 878.14,769.061 878.474,804.492 878.808,861.182 879.143,832.837 
  879.477,769.061 879.811,800.949 880.146,715.914 880.48,701.742 880.814,680.483 881.149,705.285 881.817,503.327 882.152,620.25 882.486,715.914 882.82,772.604 
  883.155,800.949 883.489,818.665 883.824,861.182 884.158,928.501 884.492,910.786 884.827,939.131 885.161,847.01 885.495,822.208 885.83,776.147 886.164,786.777 
  886.498,861.182 886.833,885.984 887.167,907.243 887.501,719.457 887.836,786.777 888.17,754.888 888.839,637.965 889.173,630.879 889.507,496.241 889.842,478.525 
  890.176,588.362 890.51,652.138 890.845,715.914 891.179,758.432 891.513,793.863 891.848,843.467 892.182,1176.52 892.516,1059.6 892.851,1059.6 893.185,1084.4 
  893.519,1020.62 893.854,978.105 894.188,949.76 894.522,1027.71 894.857,914.329 895.191,914.329 895.525,786.777 895.86,793.863 896.194,694.655 896.528,737.173 
  896.863,712.371 897.197,751.345 897.531,606.077 897.866,581.275 898.2,506.87 898.534,570.646 898.869,705.285 899.203,726.543 899.537,769.061 899.872,829.294 
  900.206,857.639 900.54,917.872 900.875,935.588 901.209,889.527 901.543,790.32 901.878,783.233 902.212,747.802 902.546,673.397 902.881,652.138 903.215,482.068 
  903.549,606.077 903.884,570.646 904.218,524.586 904.552,627.336 904.887,560.017 905.221,453.723 905.555,531.672 905.89,510.413 906.224,659.224 906.558,698.198 
  906.893,769.061 907.227,878.898 907.561,900.156 907.896,932.045 908.23,949.76 908.564,924.958 908.899,956.846 909.233,914.329 909.567,843.467 909.902,765.518 
  910.236,797.406 910.57,797.406 910.905,885.984 911.239,765.518 911.573,758.432 911.908,761.975 912.242,825.751 912.911,698.198 913.245,641.509 913.579,425.378 
  913.914,428.921 914.248,464.352 914.582,598.991 914.917,744.259 915.585,839.923 915.92,885.984 916.254,914.329 916.588,903.7 916.923,953.303 917.257,893.07 
  917.591,825.751 917.926,740.716 918.26,733.63 918.929,850.553 919.598,779.69 919.932,800.949 920.266,772.604 920.601,758.432 920.935,645.052 921.269,517.499 
  921.604,443.094 922.272,620.25 922.607,680.483 922.941,811.578 923.275,847.01 923.61,900.156 923.944,893.07 924.278,924.958 924.613,942.674 924.947,903.7 
  925.281,882.441 925.616,769.061 925.95,751.345 926.284,804.492 926.619,772.604 926.953,921.415 927.287,896.613 927.622,924.958 927.956,868.268 928.625,730.087 
  928.959,708.828 929.293,648.595 929.628,510.413 929.962,521.042 930.296,606.077 930.631,808.035 930.965,786.777 931.299,843.467 931.634,928.501 931.968,942.674 
  932.302,1137.55 932.637,1098.57 932.971,1034.8 933.64,829.294 933.974,737.173 934.643,730.087 934.977,847.01 935.311,878.898 935.646,861.182 936.314,797.406 
  936.649,701.742 936.983,570.646 937.317,598.991 937.652,464.352 937.986,482.068 938.32,567.103 938.655,637.965 938.989,815.122 939.323,864.725 939.658,857.639 
  939.992,861.182 940.326,921.415 940.661,971.019 941.329,882.441 941.664,829.294 941.998,701.742 942.332,765.518 943.001,818.665 943.335,861.182 943.67,747.802 
  944.004,723 944.338,687.569 944.673,609.62 945.007,606.077 945.341,552.93 945.676,474.982 946.01,506.87 946.679,705.285 947.347,861.182 947.682,822.208 
  948.016,885.984 948.35,946.217 948.685,896.613 949.353,917.872 949.688,878.898 950.356,818.665 950.691,875.355 951.025,758.432 951.359,751.345 951.694,776.147 
  952.028,769.061 952.362,864.725 952.697,758.432 953.031,740.716 953.366,606.077 953.7,524.586 954.034,503.327 954.703,556.474 955.037,662.767 955.372,666.31 
  955.706,772.604 956.04,790.32 956.375,822.208 956.709,825.751 957.043,822.208 957.378,776.147 957.712,744.259 958.046,747.802 958.381,694.655 958.715,676.94 
  959.049,584.819 959.384,627.336 959.718,588.362 960.052,648.595 960.387,680.483 960.721,517.499 961.055,524.586 961.39,560.017 961.724,524.586 962.058,506.87 
  962.393,584.819 962.727,715.914 963.061,761.975 963.396,800.949 963.73,800.949 964.064,843.467 964.733,875.355 965.067,910.786 965.736,761.975 966.07,723 
  966.405,684.026 966.739,676.94 967.073,907.243 967.408,804.492 967.742,847.01 968.076,829.294 968.411,808.035 968.745,765.518 969.079,733.63 969.414,659.224 
  969.748,598.991 970.082,524.586 970.417,563.56 970.751,613.164 971.085,648.595 971.42,730.087 971.754,811.578 972.088,790.32 972.423,868.268 972.757,857.639 
  973.091,889.527 973.426,921.415 973.76,758.432 974.094,712.371 974.429,712.371 974.763,829.294 975.097,900.156 975.432,822.208 975.766,850.553 976.1,804.492 
  976.435,793.863 976.769,786.777 977.103,616.707 977.438,545.844 977.772,432.464 978.106,436.007 978.441,560.017 978.775,676.94 979.109,687.569 979.444,797.406 
  979.778,797.406 980.112,871.811 980.447,1158.8 980.781,1095.03 981.115,1045.42 981.45,1027.71 981.784,885.984 982.118,839.923 982.453,790.32 982.787,786.777 
  983.121,825.751 983.456,903.7 984.124,924.958 984.459,861.182 985.127,839.923 985.462,754.888 985.796,584.819 986.13,666.31 986.465,730.087 986.799,737.173 
  987.133,804.492 987.468,832.837 987.802,839.923 988.137,914.329 988.471,974.562 988.805,928.501 989.14,928.501 989.474,875.355 989.808,783.233 990.143,754.888 
  990.477,783.233 990.811,797.406 991.146,889.527 991.48,878.898 992.149,790.32 992.483,793.863 992.817,715.914 993.152,666.31 993.82,450.18 994.155,570.646 
  994.489,630.879 994.823,684.026 995.158,751.345 995.492,761.975 995.826,829.294 996.161,864.725 996.829,928.501 997.164,932.045 997.498,893.07 997.832,786.777 
  998.167,772.604 998.501,740.716 998.835,811.578 999.17,893.07 999.504,868.268 999.838,751.345 1000.17,822.208 1000.51,797.406 1000.84,694.655 1001.18,687.569 
  1001.51,662.767 1001.84,503.327 1002.18,560.017 1002.51,630.879 1002.85,701.742 1003.18,715.914 1003.52,818.665 1003.85,864.725 1004.18,822.208 1004.52,924.958 
  1004.85,939.131 1005.19,960.39 1005.52,939.131 1005.86,822.208 1006.19,839.923 1006.53,839.923 1006.86,914.329 1007.19,861.182 1007.53,896.613 1007.86,829.294 
  1008.2,758.432 1008.53,698.198 1008.87,701.742 1009.2,758.432 1009.53,698.198 1009.87,531.672 1010.2,499.784 1010.54,414.749 1011.21,684.026 1011.54,776.147 
  1011.87,861.182 1012.88,900.156 1013.21,907.243 1013.55,857.639 1013.88,822.208 1014.21,740.716 1014.55,769.061 1014.88,744.259 1015.22,609.62 1015.55,630.879 
  1015.89,521.042 1016.22,680.483 1016.56,691.112 1016.89,623.793 1017.22,588.362 1017.56,574.189 1017.89,584.819 1018.23,506.87 1018.56,641.509 1018.9,747.802 
  1019.23,903.7 1019.56,914.329 1020.23,953.303 1020.57,1194.24 1020.9,1080.86 1021.24,1041.88 1021.57,1041.88 1021.9,924.958 1022.24,946.217 1022.57,861.182 
  1022.91,754.888 1023.24,786.777 1023.58,847.01 1023.91,769.061 1024.24,733.63 1024.58,712.371 1024.91,705.285 1025.25,776.147 1025.58,684.026 1026.25,680.483 
  1026.59,790.32 1026.92,917.872 1027.25,928.501 1027.59,942.674 1027.92,932.045 1028.26,985.191 1028.59,1045.42 1028.93,967.476 1029.26,910.786 1029.93,761.975 
  1030.26,882.441 1030.6,726.543 1030.93,875.355 1031.27,737.173 1031.6,868.268 1031.93,839.923 1032.27,740.716 1032.6,811.578 1032.94,715.914 1033.27,588.362 
  1033.94,499.784 1034.27,556.474 1034.61,652.138 1034.94,705.285 1035.28,783.233 1035.61,822.208 1035.95,861.182 1036.28,907.243 1036.62,910.786 1036.95,882.441 
  1037.28,932.045 1037.62,910.786 1037.95,747.802 1038.29,733.63 1038.62,708.828 1038.96,772.604 1039.29,708.828 1039.62,917.872 1039.96,868.268 1040.29,779.69 
  1040.63,779.69 1040.96,779.69 1041.3,581.275 1041.96,368.688 1042.3,485.611 1042.63,652.138 1042.97,765.518 1043.3,800.949 1043.64,790.32 1043.97,847.01 
  1044.31,896.613 1044.64,967.476 1044.97,921.415 1045.31,854.096 1045.64,946.217 1045.98,843.467 1046.31,758.432 1046.65,797.406 1046.98,769.061 1047.31,822.208 
  1047.65,839.923 1047.98,854.096 1048.32,800.949 1049.32,531.672 1049.65,496.241 1049.99,450.18 1050.32,492.697 1050.66,669.854 1050.99,751.345 1051.33,843.467 
  1051.66,854.096 1051.99,932.045 1052.33,949.76 1052.66,1027.71 1053,988.735 1054,875.355 1054.67,847.01 1055,811.578 1055.34,779.69 1055.67,836.38 
  1056.01,733.63 1056.34,659.224 1056.68,687.569 1057.01,684.026 1057.34,645.052 1057.68,510.413 1058.01,538.758 1058.35,584.819 1058.68,623.793 1059.02,680.483 
  1059.35,726.543 1059.68,811.578 1060.02,854.096 1060.35,843.467 1060.69,1105.66 1061.02,1031.25 1061.36,1119.83 1062.02,924.958 1062.36,889.527 1062.69,825.751 
  1063.03,786.777 1063.36,815.122 1063.7,712.371 1064.03,733.63 1064.37,769.061 1064.7,726.543 1065.03,684.026 1065.37,630.879 1065.7,623.793 1066.04,521.042 
  1066.37,450.18 1066.71,524.586 1067.04,694.655 1067.37,694.655 1068.04,730.087 1068.71,889.527 1069.05,875.355 1069.38,811.578 1069.71,804.492 1070.05,786.777 
  1070.38,825.751 1070.72,776.147 1071.05,701.742 1071.39,655.681 1071.72,623.793 1072.05,521.042 1072.39,489.154 1072.72,616.707 1073.06,517.499 1073.39,588.362 
  1073.73,471.439 1074.06,457.266 1074.4,510.413 1074.73,623.793 1075.06,701.742 1075.4,754.888 1075.73,786.777 1076.07,878.898 1076.4,946.217 1077.4,861.182 
  1077.74,878.898 1078.07,765.518 1078.41,854.096 1078.74,676.94 1079.08,804.492 1079.41,843.467 1079.74,765.518 1080.08,829.294 1080.41,769.061 1081.08,630.879 
  1081.42,630.879 1081.75,634.422 1082.09,616.707 1082.42,659.224 1082.75,779.69 1083.09,804.492 1083.42,829.294 1083.76,868.268 1084.09,893.07 1084.43,946.217 
  1084.76,971.019 1085.09,988.735 1085.43,1017.08 1085.76,1056.05 1086.1,861.182 1086.43,896.613 1086.77,960.39 1087.1,981.648 1087.43,808.035 1088.1,917.872 
  1088.44,747.802 1088.77,701.742 1089.11,588.362 1089.44,517.499 1090.11,411.206 1090.44,496.241 1090.78,634.422 1091.11,772.604 1091.45,758.432 1091.78,864.725 
  1092.12,889.527 1092.45,953.303 1092.78,942.674 1093.12,914.329 1093.79,893.07 1094.12,691.112 1094.46,751.345 1094.79,684.026 1095.12,705.285 1095.46,825.751 
  1095.79,857.639 1096.13,761.975 1096.46,542.301 1096.8,680.483 1097.13,627.336 1097.46,676.94 1097.8,630.879 1098.13,517.499 1098.47,499.784 1098.8,708.828 
  1099.14,730.087 1099.47,822.208 1099.8,854.096 1100.14,893.07 1100.81,1201.32 1101.14,1070.23 1101.48,1002.91 1101.81,949.76 1102.15,850.553 1102.48,928.501 
  1102.81,896.613 1103.15,935.588 1103.48,971.019 1103.82,893.07 1104.15,917.872 1104.49,822.208 1104.82,740.716 1105.15,691.112 1105.82,552.93 1106.16,538.758 
  1106.49,595.448 1107.16,737.173 1107.49,815.122 1107.83,893.07 1108.5,917.872 1108.83,946.217 1109.17,864.725 1109.5,903.7 1109.84,985.191 1110.17,839.923 
  1110.5,839.923 1110.84,942.674 1111.17,878.898 1111.51,843.467 1111.84,907.243 1112.18,882.441 1112.51,790.32 1112.84,790.32 1113.18,687.569 1113.51,723 
  1113.85,542.301 1114.18,343.886 1114.52,297.826 1114.85,464.352 1115.18,616.707 1115.52,723 1115.85,793.863 1116.19,854.096 1116.52,917.872 1116.86,963.933 
  1117.19,946.217 1117.52,995.821 1117.86,885.984 1118.19,797.406 1118.53,758.432 1118.86,779.69 1119.2,751.345 1119.87,797.406 1120.2,857.639 1120.53,733.63 
  1120.87,719.457 1121.2,687.569 1121.54,616.707 1121.87,340.343 1122.21,163.187 1122.54,258.851 1122.87,315.541 1123.21,446.637 1123.54,531.672 1123.88,645.052 
  1124.21,772.604 1124.55,903.7 1124.88,875.355 1125.21,921.415 1125.55,924.958 1126.22,882.441 1126.55,758.432 1126.89,758.432 1127.22,793.863 1127.55,740.716 
  1127.89,634.422 1128.22,669.854 1128.56,740.716 1128.89,786.777 1129.23,687.569 1129.9,659.224 1130.23,616.707 1130.56,687.569 1130.9,726.543 1131.23,825.751 
  1131.57,832.837 1131.9,1098.57 1132.24,1063.14 1132.57,1091.49 1132.9,1048.97 1133.24,1013.54 1133.57,1056.05 1133.91,1087.94 1134.24,921.415 1134.58,917.872 
  1134.91,917.872 1135.24,928.501 1135.58,889.527 1136.25,847.01 1136.58,786.777 1137.25,758.432 1137.58,673.397 1137.92,662.767 1138.25,563.56 1138.59,659.224 
  1138.92,758.432 1139.26,818.665 1139.59,808.035 1139.93,811.578 1140.26,847.01 1140.59,861.182 1140.93,889.527 1141.26,850.553 1141.6,878.898 1141.93,1002.91 
  1142.27,974.562 1142.6,988.735 1142.93,946.217 1143.27,967.476 1143.6,868.268 1143.94,953.303 1144.27,928.501 1144.61,825.751 1144.94,854.096 1145.27,712.371 
  1145.61,499.784 1145.94,524.586 1146.28,499.784 1146.61,478.525 1146.95,669.854 1147.28,754.888 1147.95,868.268 1148.28,903.7 1148.62,896.613 1148.95,949.76 
  1149.29,917.872 1149.62,942.674 1149.96,960.39 1150.29,953.303 1150.62,900.156 1150.96,769.061 1151.29,861.182 1151.63,793.863 1151.96,843.467 1152.3,896.613 
  1152.63,875.355 1152.96,907.243 1153.3,637.965 1153.63,641.509 1153.97,482.068 1154.3,421.835 1154.64,485.611 1154.97,684.026 1155.3,800.949 1155.64,871.811 
  1155.97,903.7 1156.31,907.243 1156.64,939.131 1156.98,946.217 1157.31,917.872 1157.65,885.984 1158.31,903.7 1158.65,864.725 1158.98,864.725 1159.32,825.751 
  1159.65,868.268 1159.99,786.777 1160.32,832.837 1160.65,761.975 1160.99,719.457 1161.32,719.457 1161.66,641.509 1161.99,567.103 1162.33,538.758 1162.66,588.362 
  1162.99,701.742 1163.66,822.208 1164,850.553 1164.33,878.898 1164.67,889.527 1165,921.415 1165.33,896.613 1165.67,857.639 1166,861.182 1166.67,839.923 
  1167.01,946.217 1167.34,921.415 1167.68,793.863 1168.01,776.147 1168.34,847.01 1168.68,793.863 1169.01,783.233 1169.35,691.112 1169.68,712.371 1170.02,623.793 
  1170.35,492.697 1170.68,446.637 1171.02,425.378 1171.35,567.103 1171.69,648.595 1172.02,694.655 1172.36,737.173 1172.69,772.604 1173.02,847.01 1173.36,854.096 
  1173.69,808.035 1174.03,850.553 1174.36,772.604 1174.7,800.949 1175.03,861.182 1175.36,871.811 1175.7,839.923 1176.03,893.07 1176.37,878.898 1176.7,836.38 
  1177.04,737.173 1177.37,659.224 1177.71,630.879 1178.04,620.25 1178.37,510.413 1178.71,588.362 1179.38,637.965 1179.71,673.397 1180.05,808.035 1180.38,914.329 
  1180.71,924.958 1181.05,967.476 1181.38,939.131 1181.72,953.303 1182.05,868.268 1182.39,747.802 1182.72,705.285 1183.39,676.94 1183.72,584.819 1184.06,606.077 
  1184.39,577.732 1184.73,549.387 1185.06,542.301 1185.4,634.422 1186.06,581.275 1186.4,524.586 1186.73,659.224 1187.07,754.888 1187.4,839.923 1187.74,836.38 
  1188.07,893.07 1188.4,928.501 1188.74,992.278 1189.07,992.278 1189.41,978.105 1189.74,988.735 1190.08,939.131 1190.41,854.096 1190.74,829.294 1191.08,854.096 
  1191.41,917.872 1191.75,910.786 1192.08,875.355 1192.42,893.07 1192.75,783.233 1193.08,779.69 1193.42,730.087 1193.75,620.25 1194.09,595.448 1194.42,535.215 
  1194.76,591.905 1195.09,701.742 1195.43,779.69 1195.76,839.923 1196.09,921.415 1196.43,907.243 1196.76,910.786 1197.1,942.674 1197.43,885.984 1198.1,967.476 
  1198.43,910.786 1199.1,967.476 1199.44,1031.25 1199.77,932.045 1200.11,1038.34 1200.44,1070.23 1200.77,967.476 1201.44,783.233 1201.78,719.457 1202.11,613.164 
  1202.45,563.56 1202.78,598.991 1203.11,669.854 1203.45,751.345 1203.78,843.467 1204.12,857.639 1204.45,942.674 1204.79,974.562 1205.12,1017.08 1205.46,949.76 
  1205.79,946.217 1206.12,967.476 1206.46,953.303 1206.79,885.984 1207.13,910.786 1207.46,818.665 1207.8,758.432 1208.13,825.751 1208.46,843.467 1208.8,723 
  1209.13,772.604 1209.47,655.681 1209.8,715.914 1210.14,634.422 1210.47,602.534 1210.8,595.448 1211.14,676.94 1211.47,797.406 1212.48,910.786 1212.81,914.329 
  1213.14,978.105 1213.81,857.639 1214.15,953.303 1214.48,864.725 1214.82,871.811 1215.15,900.156 1215.49,949.76 1216.15,1052.51 1216.49,1020.62 1216.82,978.105 
  1217.16,953.303 1217.83,751.345 1218.16,705.285 1218.49,673.397 1218.83,744.259 1219.16,864.725 1219.5,910.786 1219.83,960.39 1220.17,981.648 1220.5,1017.08 
  1220.83,1006.45 1221.17,1091.49 1221.5,1066.68 1221.84,1070.23 1222.17,1155.26 1222.51,971.019 1222.84,1031.25 1223.18,942.674 1223.51,1105.66 1223.84,1034.8 
  1224.18,1070.23 1224.51,1052.51 1224.85,1027.71 1225.18,988.735 1225.52,896.613 1225.85,864.725 1226.18,723 1226.52,673.397 1227.19,747.802 1227.52,861.182 
  1227.86,939.131 1228.19,992.278 1228.52,1063.14 1228.86,1024.17 1229.19,1087.94 1229.53,1084.4 1229.86,1041.88 1230.2,1066.68 1230.53,1041.88 1230.86,928.501 
  1231.2,914.329 1231.53,963.933 1231.87,910.786 1232.2,878.898 1232.54,885.984 1232.87,942.674 1233.21,932.045 1233.54,822.208 1233.87,868.268 1234.21,715.914 
  1234.54,627.336 1234.88,535.215 1235.21,715.914 1235.55,822.208 1235.88,850.553 1236.21,896.613 1236.55,960.39 1236.88,988.735 1237.55,1024.17 1237.89,1031.25 
  1238.22,967.476 1238.55,946.217 1238.89,882.441 1239.22,769.061 1239.56,712.371 1239.89,793.863 1240.23,772.604 1240.56,723 1240.89,655.681 1241.23,669.854 
  1241.56,627.336 1241.9,588.362 1242.23,549.387 1242.57,648.595 1242.9,687.569 1243.24,779.69 1243.57,914.329 1243.9,978.105 1244.24,1059.6 1244.57,1084.4 
  1244.91,1073.77 1245.24,1084.4 1245.58,1070.23 1245.91,1073.77 1246.24,1027.71 1246.58,974.562 1246.91,981.648 1247.25,857.639 1247.58,960.39 1247.92,985.191 
  1248.25,967.476 1248.92,871.811 1249.25,850.553 1249.59,800.949 1249.92,616.707 1250.26,591.905 1250.59,584.819 1250.93,645.052 1251.26,740.716 1251.59,839.923 
  1251.93,917.872 1252.26,932.045 1252.6,974.562 1252.93,981.648 1253.27,1020.62 1253.6,1002.91 1253.93,1009.99 1254.27,978.105 1254.6,963.933 1254.94,868.268 
  1255.27,864.725 1255.61,992.278 1255.94,921.415 1256.27,1013.54 1256.61,963.933 1256.94,829.294 1257.28,917.872 1257.61,783.233 1257.95,634.422 1258.28,503.327 
  1258.61,609.62 1258.95,708.828 1259.28,769.061 1259.62,839.923 1259.95,857.639 1260.29,921.415 1260.62,921.415 1260.96,949.76 1261.29,981.648 1261.62,942.674 
  1261.96,946.217 1262.29,956.846 1262.63,854.096 1262.96,825.751 1263.3,804.492 1263.63,854.096 1263.96,800.949 1264.3,825.751 1264.63,882.441 1264.97,861.182 
  1265.3,793.863 1265.64,776.147 1265.97,747.802 1266.3,627.336 1266.64,496.241 1266.97,676.94 1267.31,776.147 1267.64,893.07 1268.31,960.39 1268.64,981.648 
  1269.31,1034.8 1269.65,985.191 1269.98,1041.88 1270.32,995.821 1270.65,868.268 1270.99,861.182 1271.32,939.131 1271.65,928.501 1271.99,893.07 1272.32,811.578 
  1272.66,910.786 1272.99,847.01 1273.33,744.259 1273.66,811.578 1273.99,800.949 1274.33,591.905 1274.66,570.646 1275,676.94 1275.33,847.01 1275.67,864.725 
  1276,967.476 1276.33,1024.17 1276.67,1056.05 1277,1091.49 1277.34,1087.94 1277.67,1038.34 1278.01,939.131 1278.67,985.191 1279.34,939.131 1279.68,932.045 
  1280.01,910.786 1280.35,946.217 1280.68,900.156 1281.02,850.553 1281.35,797.406 1281.68,793.863 1282.02,800.949 1282.35,669.854 1282.69,503.327 1283.02,535.215 
  1283.36,549.387 1283.69,637.965 1284.02,687.569 1284.36,726.543 1284.69,854.096 1285.03,854.096 1285.36,893.07 1285.7,917.872 1286.03,914.329 1286.7,839.923 
  1287.03,900.156 1287.37,914.329 1288.04,946.217 1288.37,878.898 1288.71,928.501 1289.04,839.923 1289.37,761.975 1289.71,832.837 1290.04,864.725 1290.38,524.586 
  1290.71,570.646 1291.05,478.525 1291.71,655.681 1292.05,698.198 1292.38,783.233 1292.72,854.096 1293.05,924.958 1293.39,963.933 1293.72,924.958 1294.05,932.045 
  1294.39,917.872 1294.72,871.811 1295.06,818.665 1295.39,772.604 1295.73,843.467 1296.06,871.811 1296.39,818.665 1296.73,804.492 1297.06,857.639 1297.73,783.233 
  1298.07,871.811 1298.4,765.518 1298.74,769.061 1299.07,723 1299.4,783.233 1299.74,854.096 1300.07,917.872 1300.41,963.933 1300.74,963.933 1301.08,988.735 
  1301.41,992.278 1301.74,992.278 1302.75,1017.08 1303.08,928.501 1303.42,928.501 1303.75,939.131 1304.08,889.527 1304.42,942.674 1304.75,942.674 1305.09,988.735 
  1305.42,868.268 1305.76,758.432 1306.09,708.828 1306.42,680.483 1306.76,754.888 1307.09,790.32 1307.43,832.837 1307.76,914.329 1308.1,985.191 1308.43,963.933 
  1308.77,1002.91 1309.1,1034.8 1309.43,1020.62 1309.77,1031.25 1310.1,974.562 1310.44,1091.49 1310.77,1066.68 1311.11,1073.77 1311.44,978.105 1311.77,985.191 
  1312.11,992.278 1312.44,953.303 1312.78,999.364 1313.11,875.355 1313.45,797.406 1313.78,779.69 1314.11,659.224 1314.45,588.362 1314.78,496.241 1315.12,570.646 
  1315.45,659.224 1315.79,765.518 1316.12,847.01 1316.45,907.243 1316.79,971.019 1317.12,978.105 1317.46,988.735 1317.79,942.674 1318.13,854.096 1318.46,953.303 
  1318.8,974.562 1319.13,932.045 1319.46,850.553 1319.8,893.07 1320.13,907.243 1320.47,974.562 1321.14,843.467 1321.47,896.613 1321.8,786.777 1322.14,758.432 
  1322.47,623.793 1322.81,471.439 1323.14,570.646 1323.48,715.914 1323.81,793.863 1324.14,811.578 1324.81,907.243 1325.15,946.217 1325.48,924.958 1325.82,864.725 
  1326.15,839.923 1326.49,971.019 1326.82,1027.71 1327.15,928.501 1327.49,875.355 1327.82,939.131 1328.16,864.725 1328.49,854.096 1328.83,910.786 1329.16,882.441 
  1329.49,843.467 1329.83,790.32 1330.16,754.888 1330.5,606.077 1331.17,613.164 1331.5,754.888 1331.83,804.492 1332.17,878.898 1332.5,928.501 1333.17,939.131 
  1333.51,914.329 1333.84,903.7 1334.17,832.837 1334.51,843.467 1334.84,882.441 1335.18,889.527 1335.51,829.294 1335.85,871.811 1336.18,854.096 1336.52,953.303 
  1336.85,868.268 1337.18,765.518 1337.52,793.863 1337.85,687.569 1338.19,769.061 1338.52,701.742 1338.86,531.672 1339.19,560.017 1339.52,588.362 1339.86,591.905 
  1340.19,708.828 1340.53,733.63 1340.86,783.233 1341.2,808.035 1341.53,843.467 1341.86,839.923 1342.2,992.278 1342.53,953.303 1342.87,960.39 1343.2,942.674 
  1343.87,885.984 1344.2,839.923 1344.54,797.406 1344.87,754.888 1345.21,623.793 1345.54,676.94 1345.88,761.975 1346.21,783.233 1346.55,747.802 1346.88,659.224 
  1347.21,588.362 1347.55,652.138 1347.88,779.69 1348.22,882.441 1348.55,928.501 1348.89,967.476 1349.22,946.217 1349.89,1073.77 1350.22,1024.17 1350.56,995.821 
  1350.89,924.958 1351.23,779.69 1351.56,684.026 1351.89,598.991 1352.23,542.301 1352.56,567.103 1352.9,517.499 1353.23,549.387 1353.57,648.595 1353.9,723 
  1354.24,723 1354.57,761.975 1354.9,800.949 1355.24,864.725 1355.57,978.105 1355.91,1024.17 1356.24,1024.17 1356.58,1038.34 1356.91,1098.57 1357.24,1056.05 
  1357.58,1080.86 1357.91,1098.57 1358.25,995.821 1358.58,1080.86 1358.92,1002.91 1359.25,988.735 1359.92,953.303 1360.25,864.725 1360.59,875.355 1360.92,861.182 
  1361.26,850.553 1361.59,832.837 1362.59,684.026 1363.26,652.138 1363.6,769.061 1363.93,850.553 1364.27,864.725 1364.6,907.243 1364.93,907.243 1365.27,953.303 
  1365.6,1017.08 1365.94,999.364 1366.27,974.562 1366.61,1066.68 1366.94,978.105 1367.27,946.217 1367.61,900.156 1367.94,896.613 1368.28,868.268 1368.61,893.07 
  1369.28,825.751 1369.61,761.975 1369.95,747.802 1370.28,634.422 1370.62,627.336 1370.95,545.844 1371.29,659.224 1371.62,758.432 1372.29,871.811 1372.62,903.7 
  1372.96,949.76 1373.29,981.648 1373.63,992.278 1373.96,992.278 1374.3,978.105 1374.63,1073.77 1375.3,939.131 1375.63,825.751 1375.97,832.837 1376.3,747.802 
  1376.64,889.527 1376.97,684.026 1377.3,691.112 1377.64,598.991 1377.97,567.103 1378.31,499.784 1378.64,418.292 1378.98,464.352 1379.31,436.007 1379.64,687.569 
  1379.98,790.32 1380.31,825.751 1380.65,914.329 1380.98,939.131 1381.32,960.39 1381.65,981.648 1381.98,1020.62 1382.32,999.364 1382.65,1013.54 1382.99,907.243 
  1383.32,896.613 1383.66,843.467 1383.99,776.147 1384.33,783.233 1384.66,783.233 1384.99,808.035 1385.33,804.492 1385.66,733.63 1386,648.595 1386.33,733.63 
  1386.67,758.432 1387,680.483 1387.33,733.63 1387.67,815.122 1388,893.07 1388.34,932.045 1388.67,978.105 1389.01,953.303 1389.34,992.278 1389.67,1027.71 
  1390.01,1013.54 1390.34,1013.54 1390.68,1070.23 1391.01,1009.99 1391.35,999.364 1391.68,864.725 1392.02,956.846 1392.35,765.518 1392.68,924.958 1393.02,836.38 
  1393.35,836.38 1393.69,769.061 1394.02,765.518 1394.36,623.793 1394.69,560.017 1395.02,457.266 1395.36,443.094 1395.69,598.991 1396.03,758.432 1396.36,857.639 
  1396.7,896.613 1397.03,949.76 1397.36,999.364 1397.7,1020.62 1398.03,1038.34 1398.37,1056.05 1398.7,981.648 1399.04,949.76 1399.37,871.811 1399.7,832.837 
  1400.04,804.492 1400.37,808.035 1400.71,832.837 1401.38,705.285 1401.71,758.432 1402.05,804.492 1402.38,758.432 1402.71,712.371 1403.05,666.31 1403.38,719.457 
  1403.72,705.285 1404.05,843.467 1404.39,935.588 1404.72,1063.14 1405.05,1112.74 1405.39,1091.49 1405.72,1095.03 1406.06,1070.23 1406.39,1027.71 1406.73,974.562 
  1407.06,928.501 1407.39,910.786 1407.73,800.949 1408.06,726.543 1408.4,758.432 1408.73,691.112 1409.07,769.061 1409.4,779.69 1410.07,754.888 1410.4,769.061 
  1410.74,747.802 1411.07,900.156 1411.41,932.045 1411.74,1034.8 1412.08,1095.03 1412.41,1063.14 1412.74,1134 1413.08,1137.55 1413.75,1126.92 1414.42,1130.46 
  1414.75,1144.63 1415.42,878.898 1415.75,903.7 1416.09,839.923 1416.42,928.501 1416.76,932.045 1417.09,914.329 1417.42,963.933 1417.76,896.613 1418.09,854.096 
  1418.43,818.665 1418.76,673.397 1419.1,737.173 1419.43,740.716 1419.76,882.441 1420.1,981.648 1420.43,995.821 1420.77,1048.97 1421.1,1091.49 1421.44,1098.57 
  1421.77,1056.05 1422.11,1041.88 1422.44,1066.68 1422.77,1017.08 1423.11,953.303 1423.44,932.045 1423.78,896.613 1424.11,875.355 1424.45,882.441 1424.78,861.182 
  1425.11,889.527 1425.78,896.613 1426.12,896.613 1426.45,747.802 1426.79,712.371 1427.12,740.716 1427.45,776.147 1427.79,825.751 1428.12,907.243 1428.46,1017.08 
  1428.79,1084.4 1429.13,1080.86 1429.46,1066.68 1429.8,1084.4 1430.46,1027.71 1430.8,992.278 1431.13,939.131 1431.47,885.984 1431.8,864.725 1432.14,857.639 
  1432.47,871.811 1432.8,1002.91 1433.14,988.735 1433.47,1034.8 1433.81,981.648 1434.14,893.07 1434.48,839.923 1434.81,684.026 1435.14,684.026 1435.48,694.655 
  1435.81,723 1436.15,825.751 1436.48,921.415 1436.82,1034.8 1437.15,1038.34 1437.48,1091.49 1437.82,1130.46 1438.15,1091.49 1438.49,1063.14 1438.82,1070.23 
  1439.16,1027.71 1439.49,1013.54 1439.83,974.562 1440.16,928.501 1440.49,903.7 1440.83,854.096 1441.16,797.406 1441.5,800.949 1441.83,832.837 1442.17,793.863 
  1442.5,772.604 1442.83,783.233 1443.17,772.604 1443.5,790.32 1443.84,850.553 1444.17,960.39 1444.51,1024.17 1444.84,981.648 1445.17,1073.77 1445.51,1052.51 
  1445.84,1105.66 1446.18,1045.42 1446.51,1041.88 1446.85,974.562 1447.18,878.898 1447.51,893.07 1447.85,786.777 1448.18,857.639 1448.85,889.527 1449.19,914.329 
  1449.52,850.553 1449.86,790.32 1450.19,832.837 1450.52,878.898 1450.86,673.397 1451.19,691.112 1451.53,634.422 1451.86,765.518 1452.2,861.182 1452.53,864.725 
  1452.86,932.045 1453.2,999.364 1453.53,1013.54 1453.87,1056.05 1454.2,1056.05 1454.54,1073.77 1454.87,1027.71 1455.2,1059.6 1455.54,995.821 1455.87,935.588 
  1456.54,988.735 1456.88,917.872 1457.21,793.863 1457.55,790.32 1457.88,861.182 1458.21,967.476 1458.55,946.217 1458.88,800.949 1459.22,847.01 1459.55,797.406 
  1459.89,804.492 1460.22,818.665 1460.55,967.476 1460.89,988.735 1461.22,1038.34 1461.56,1077.31 1461.89,1080.86 1462.23,1087.94 1462.56,1095.03 1462.89,1038.34 
  1463.23,985.191 1463.56,1027.71 1463.9,1002.91 1464.23,893.07 1464.57,857.639 1464.9,839.923 1465.23,708.828 1465.57,730.087 1465.9,857.639 1466.24,843.467 
  1466.57,871.811 1466.91,793.863 1467.24,875.355 1467.58,854.096 1467.91,956.846 1468.24,981.648 1468.58,1048.97 1468.91,1038.34 1469.25,1080.86 1469.58,1080.86 
  1469.92,1109.2 1470.25,1109.2 1470.92,1070.23 1471.25,978.105 1471.59,988.735 1471.92,917.872 1472.26,928.501 1472.59,1002.91 1472.92,1052.51 1473.26,974.562 
  1473.59,971.019 1473.93,907.243 1474.26,885.984 1474.6,740.716 1474.93,684.026 1475.26,708.828 1475.6,793.863 1475.93,882.441 1476.27,903.7 1476.6,921.415 
  1476.94,1013.54 1477.27,1052.51 1477.61,1080.86 1477.94,1073.77 1478.27,1087.94 1478.61,1070.23 1478.94,1027.71 1479.28,992.278 1479.61,974.562 1479.95,946.217 
  1480.28,928.501 1480.61,868.268 1480.95,956.846 1481.28,928.501 1481.95,825.751 1482.29,772.604 1482.95,712.371 1483.29,676.94 1483.62,730.087 1483.96,818.665 
  1484.29,956.846 1484.63,1024.17 1484.96,1027.71 1485.29,1034.8 1485.63,1073.77 1485.96,1059.6 1486.3,1045.42 1486.63,1052.51 1486.97,1087.94 1487.3,988.735 
  1487.64,889.527 1487.97,761.975 1488.3,808.035 1488.64,903.7 1488.97,932.045 1489.31,928.501 1489.64,850.553 1489.98,783.233 1490.31,630.879 1490.98,577.732 
  1491.31,556.474 1492.32,917.872 1492.65,967.476 1492.98,1006.45 1493.32,1013.54 1493.65,1045.42 1493.99,1027.71 1494.32,1020.62 1494.66,978.105 1494.99,995.821 
  1495.33,988.735 1495.66,960.39 1495.99,893.07 1496.66,928.501 1497,939.131 1497.33,907.243 1497.67,878.898 1498,811.578 1498.33,723 1498.67,694.655 
  1499,577.732 1499.34,669.854 1499.67,712.371 1500.34,864.725 1500.67,928.501 1501.01,971.019 1501.34,1017.08 1501.68,1066.68 1502.01,1052.51 1502.35,1056.05 
  1503.01,1070.23 1503.35,971.019 1504.02,829.294 1504.35,847.01 1504.69,861.182 1505.02,910.786 1505.36,854.096 1505.69,903.7 1506.36,793.863 1506.69,754.888 
  1507.03,570.646 1507.36,602.534 1507.7,577.732 1508.03,655.681 1508.36,765.518 1508.7,793.863 1509.03,857.639 1509.37,914.329 1510.04,1009.99 1510.37,1017.08 
  1511.04,910.786 1511.37,924.958 1512.04,783.233 1512.38,808.035 1512.71,783.233 1513.04,793.863 1513.38,758.432 1514.05,822.208 1514.38,942.674 1515.05,676.94 
  1515.39,740.716 1515.72,694.655 1516.05,694.655 1516.39,676.94 1516.72,829.294 1517.06,921.415 1517.39,971.019 1517.73,1038.34 1518.06,1056.05 1518.39,1038.34 
  1518.73,1077.31 1519.06,1063.14 1519.4,1020.62 1519.73,910.786 1520.07,875.355 1520.4,779.69 1520.73,765.518 1521.07,726.543 1521.4,627.336 1521.74,666.31 
  1522.07,641.509 1522.41,630.879 1522.74,637.965 1523.07,496.241 1523.41,577.732 1523.74,694.655 1524.08,765.518 1524.41,857.639 1524.75,889.527 1525.08,903.7 
  1525.42,935.588 1525.75,910.786 1526.08,939.131 1526.42,935.588 1526.75,889.527 1527.09,1009.99 1527.42,995.821 1527.76,917.872 1528.09,889.527 1528.42,928.501 
  1528.76,939.131 1529.09,928.501 1529.43,917.872 1530.1,963.933 1530.43,804.492 1530.76,705.285 1531.1,694.655 1531.77,733.63 1532.1,797.406 1532.44,850.553 
  1532.77,935.588 1533.11,956.846 1533.44,985.191 1533.77,988.735 1534.11,1038.34 1534.44,956.846 1534.78,946.217 1535.11,1020.62 1535.45,1020.62 1535.78,885.984 
  1536.11,847.01 1536.45,864.725 1536.78,917.872 1537.12,1048.97 1537.79,924.958 1538.12,797.406 1538.45,793.863 1538.79,684.026 1539.12,708.828 1539.46,715.914 
  1539.79,843.467 1540.13,836.38 1540.46,942.674 1540.79,1009.99 1541.13,1027.71 1541.46,1077.31 1541.8,1048.97 1542.13,1080.86 1542.47,1095.03 1542.8,1031.25 
  1543.14,914.329 1543.47,932.045 1543.8,808.035 1544.14,864.725 1544.47,935.588 1544.81,1017.08 1545.14,995.821 1545.81,928.501 1546.48,815.122 1546.81,779.69 
  1547.15,673.397 1547.48,769.061 1547.82,815.122 1548.15,949.76 1548.48,995.821 1548.82,1056.05 1549.15,1091.49 1549.49,1105.66 1549.82,1098.57 1550.16,1144.63 
  1550.49,1080.86 1550.82,1048.97 1551.16,1070.23 1551.49,971.019 1551.83,949.76 1552.16,995.821 1552.5,910.786 1552.83,1038.34 1553.17,967.476 1553.5,992.278 
  1553.83,932.045 1555.17,829.294 1555.51,769.061 1555.84,836.38 1556.17,896.613 1556.51,1070.23 1556.84,1017.08 1557.18,1077.31 1557.51,1056.05 1557.85,1038.34 
  1558.18,1077.31 1558.51,1056.05 1558.85,1045.42 1559.18,1063.14 1559.52,924.958 1559.85,914.329 1560.19,854.096 1560.52,935.588 1560.86,864.725 1561.19,1006.45 
  1561.86,878.898 1562.19,921.415 1562.53,875.355 1562.86,800.949 1563.2,701.742 1563.53,616.707 1563.86,701.742 1564.2,822.208 1564.53,864.725 1564.87,999.364 
  1565.2,1006.45 1565.54,1059.6 1565.87,1066.68 1566.2,1130.46 1566.54,1105.66 1566.87,1102.11 1567.21,1059.6 1567.54,1041.88 1567.88,939.131 1568.21,847.01 
  1568.54,917.872 1568.88,992.278 1569.21,871.811 1569.55,861.182 1570.22,723 1570.55,765.518 1570.89,761.975 1571.22,733.63 1571.55,698.198 1571.89,723 
  1572.22,779.69 1572.56,783.233 1572.89,808.035 1573.23,875.355 1573.56,981.648 1573.89,1034.8 1574.23,1020.62 1574.56,1041.88 1574.9,1020.62 1575.23,953.303 
  1575.57,836.38 1575.9,861.182 1576.23,733.63 1576.57,652.138 1576.9,779.69 1577.24,850.553 1577.57,882.441 1577.91,811.578 1578.91,800.949 1579.24,786.777 
  1579.58,808.035 1579.91,871.811 1580.25,971.019 1580.58,1045.42 1580.92,1070.23 1581.25,1098.57 1581.58,1112.74 1581.92,1098.57 1582.25,1148.18 1582.59,1087.94 
  1582.92,1098.57 1583.26,1126.92 1583.59,1038.34 1583.92,871.811 1584.26,758.432 1584.59,875.355 1584.93,921.415 1585.26,910.786 1585.6,864.725 1585.93,921.415 
  1586.26,939.131 1586.6,868.268 1586.93,878.898 1587.27,829.294 1587.6,850.553 1587.94,896.613 1588.27,963.933 1588.6,1045.42 1588.94,1045.42 1589.27,1066.68 
  1589.61,1077.31 1590.28,1134 1590.61,1091.49 1590.95,1056.05 1591.28,1084.4 1591.61,1031.25 1591.95,896.613 1592.28,878.898 1592.62,924.958 1592.95,992.278 
  1593.62,960.39 1593.95,946.217 1594.29,818.665 1594.62,793.863 1594.96,769.061 1595.29,691.112 1595.63,708.828 1595.96,761.975 1596.29,878.898 1596.63,985.191 
  1596.96,1017.08 1597.3,1024.17 1597.63,1031.25 1597.97,1066.68 1598.3,1066.68 1598.64,1066.68 1598.97,1070.23 1599.64,992.278 1599.97,825.751 1600.31,740.716 
  1600.64,783.233 1600.98,882.441 1601.31,928.501 1601.64,850.553 1601.98,928.501 1602.31,907.243 1602.65,754.888 1602.98,769.061 1603.32,659.224 1603.65,602.534 
  1603.98,726.543 1604.32,871.811 1604.65,1006.45 1604.99,999.364 1605.32,1024.17 1605.66,1024.17 1605.99,1041.88 1606.32,1066.68 1606.66,1048.97 1606.99,1045.42 
  1607.66,967.476 1608,939.131 1608.33,946.217 1608.67,878.898 1609,960.39 1609.67,985.191 1610,924.958 1610.34,839.923 1610.67,804.492 1611.01,723 
  1611.34,800.949 1611.67,719.457 1612.01,797.406 1612.34,978.105 1612.68,1020.62 1613.01,1056.05 1613.35,1112.74 1613.68,1102.11 1614.01,1116.29 1614.35,1151.72 
  1614.68,1141.09 1615.02,1098.57 1615.35,1084.4 1615.69,992.278 1616.02,1020.62 1616.35,942.674 1616.69,1002.91 1617.02,967.476 1617.36,992.278 1617.69,917.872 
  1618.03,953.303 1618.36,914.329 1618.7,733.63 1619.03,818.665 1619.36,574.189 1619.7,489.154 1620.03,616.707 1620.37,754.888 1620.7,836.38 1621.04,942.674 
  1621.37,971.019 1621.7,1041.88 1622.04,1080.86 1622.37,1123.37 1622.71,1109.2 1623.04,1112.74 1623.38,1045.42 1623.71,985.191 1624.04,878.898 1624.38,836.38 
  1624.71,843.467 1625.38,861.182 1625.72,815.122 1626.05,822.208 1626.72,793.863 1627.05,822.208 1627.39,694.655 1627.72,680.483 1628.06,723 1628.39,712.371 
  1628.73,829.294 1629.06,946.217 1629.39,956.846 1629.73,985.191 1630.06,1020.62 1630.4,1059.6 1630.73,1084.4 1631.07,1091.49 1631.4,1070.23 1631.73,1031.25 
  1632.07,995.821 1632.4,900.156 1632.74,871.811 1633.41,754.888 1633.74,712.371 1634.07,737.173 1634.41,652.138 1634.74,754.888 1635.08,790.32 1635.41,737.173 
  1636.08,889.527 1636.42,1013.54 1636.75,1006.45 1637.08,1048.97 1637.42,1073.77 1637.75,1116.29 1638.09,1098.57 1638.42,1137.55 1638.76,1109.2 1639.09,1020.62 
  1639.42,1027.71 1639.76,1017.08 1640.09,992.278 1640.43,878.898 1640.76,967.476 1641.1,885.984 1641.43,864.725 1641.76,868.268 1642.1,765.518 1642.43,730.087 
  1642.77,822.208 1643.1,854.096 1643.44,769.061 1643.77,829.294 1644.1,861.182 1644.44,921.415 1644.77,981.648 1645.11,1027.71 1645.44,1017.08 1645.78,1052.51 
  1646.11,1038.34 1646.45,1077.31 1646.78,1059.6 1647.11,1034.8 1647.45,1031.25 1647.78,921.415 1648.12,1027.71 1648.45,921.415 1648.79,949.76 1649.12,896.613 
  1649.45,992.278 1649.79,910.786 1650.12,847.01 1650.46,825.751 1650.79,854.096 1651.13,793.863 1653.13,1048.97 1653.47,1056.05 1653.8,1066.68 1654.13,1116.29 
  1654.47,1158.8 1654.8,1134 1655.14,1041.88 1655.47,1056.05 1655.81,1031.25 1656.14,974.562 1656.48,854.096 1656.81,974.562 1657.14,1009.99 1657.48,1031.25 
  1657.81,1031.25 1658.15,928.501 1658.48,900.156 1658.82,875.355 1659.15,818.665 1659.48,818.665 1659.82,808.035 1660.15,914.329 1660.82,1045.42 1661.16,1130.46 
  1661.49,1087.94 1661.82,1119.83 1662.16,1144.63 1662.49,1141.09 1662.83,1123.37 1663.16,1059.6 1663.5,1027.71 1663.83,1017.08 1664.16,995.821 1664.5,935.588 
  1664.83,978.105 1665.17,885.984 1665.5,928.501 1665.84,974.562 1666.17,928.501 1666.51,932.045 1666.84,907.243 1667.17,861.182 1667.51,889.527 1667.84,854.096 
  1668.18,875.355 1668.85,1006.45 1669.18,1105.66 1669.51,1102.11 1669.85,1130.46 1670.18,1119.83 1670.52,1119.83 1670.85,1102.11 1671.19,1048.97 1671.52,1102.11 
  1671.85,992.278 1672.19,992.278 1672.52,953.303 1672.86,981.648 1673.19,985.191 1673.53,960.39 1673.86,949.76 1674.2,839.923 1674.53,896.613 1674.86,825.751 
  1675.2,900.156 1675.53,786.777 1675.87,652.138 1676.2,715.914 1676.54,847.01 1676.87,981.648 1677.2,1038.34 1677.54,1066.68 1677.87,1130.46 1678.21,1183.61 
  1678.54,1162.35 1678.88,1130.46 1679.21,1134 1679.54,1109.2 1679.88,1048.97 1680.21,889.527 1680.88,786.777 1681.22,825.751 1681.55,861.182 1681.88,910.786 
  1682.22,779.69 1682.55,747.802 1682.89,645.052 1683.22,577.732 1683.56,598.991 1683.89,730.087 1684.23,772.604 1684.56,907.243 1684.89,900.156 1685.23,1034.8 
  1685.56,1119.83 1685.9,1201.32 1686.23,1222.58 1686.57,1204.86 1686.9,1190.69 1687.23,1119.83 1687.57,1070.23 1687.9,985.191 1688.24,988.735 1688.91,705.285 
  1689.24,570.646 1689.57,673.397 1690.24,652.138 1690.58,680.483 1690.91,641.509 1691.91,783.233 1692.25,878.898 1692.58,985.191 1692.92,932.045 1693.25,978.105 
  1693.59,1017.08 1693.92,1052.51 1694.26,1080.86 1694.59,1141.09 1694.92,1148.18 1695.26,1137.55 1695.59,1119.83 1695.93,1059.6 1696.26,1048.97 1696.6,988.735 
  1696.93,1002.91 1697.26,1052.51 1697.6,956.846 1697.93,1059.6 1698.27,949.76 1698.6,864.725 1699.27,822.208 1699.6,910.786 1699.94,847.01 1700.27,956.846 
  1700.61,1009.99 1700.94,1020.62 1701.28,1027.71 1701.61,1105.66 1701.95,1084.4 1702.28,1197.78 1702.61,1180.06 1702.95,1123.37 1703.28,1098.57 1703.62,1102.11 
  1703.95,1077.31 1704.29,1038.34 1704.62,776.147 1704.95,924.958 1705.29,1013.54 1705.62,1013.54 1705.96,978.105 1706.29,956.846 1706.63,910.786 1706.96,949.76 
  1707.29,864.725 1707.63,808.035 1707.96,790.32 1708.3,836.38 1708.63,932.045 1708.97,985.191 1709.3,981.648 1709.63,1059.6 1709.97,1073.77 1710.3,1134 
  1710.64,1084.4 1710.97,1066.68 1711.31,1080.86 1711.64,1098.57 1711.98,935.588 1712.31,871.811 1712.64,776.147 1712.98,871.811 1713.31,921.415 1713.65,946.217 
  1713.98,864.725 1714.32,871.811 1714.65,839.923 1714.98,761.975 1715.32,715.914 1715.65,687.569 1715.99,687.569 1716.32,797.406 1716.66,935.588 1716.99,1073.77 
  1717.32,1109.2 1717.66,1151.72 1717.99,1134 1718.33,1151.72 1718.66,1162.35 1719,1148.18 1719.66,1116.29 1720,999.364 1720.33,956.846 1720.67,889.527 
  1721,942.674 1721.34,992.278 1722.01,985.191 1722.34,850.553 1722.67,889.527 1723.01,783.233 1723.34,747.802 1723.68,747.802 1724.01,705.285 1724.35,804.492 
  1724.68,896.613 1725.01,999.364 1726.02,1102.11 1726.35,1151.72 1726.69,1123.37 1727.02,1077.31 1727.35,981.648 1727.69,1091.49 1728.02,1048.97 1728.36,1034.8 
  1728.69,963.933 1729.03,1013.54 1729.36,985.191 1729.69,1052.51 1730.03,949.76 1730.36,921.415 1730.7,963.933 1731.03,864.725 1731.37,808.035 1731.7,751.345 
  1732.04,744.259 1732.37,800.949 1732.7,882.441 1733.04,903.7 1733.37,1020.62 1733.71,1102.11 1734.04,1102.11 1734.38,1123.37 1734.71,1155.26 1735.04,1105.66 
  1735.38,1109.2 1735.71,1056.05 1736.05,1052.51 1736.38,1024.17 1736.72,932.045 1737.05,910.786 1737.72,942.674 1738.05,942.674 1738.39,885.984 1738.72,903.7 
  1739.06,907.243 1739.39,868.268 1739.73,769.061 1740.06,772.604 1740.39,854.096 1740.73,893.07 1741.06,889.527 1741.4,985.191 1741.73,1073.77 1742.07,1087.94 
  1742.4,1172.98 1742.73,1183.61 1743.07,1169.43 1743.4,1151.72 1744.07,1020.62 1744.41,893.07 1744.74,832.837 1745.41,691.112 1745.74,627.336 1746.08,637.965 
  1746.41,652.138 1746.75,761.975 1747.08,744.259 1747.41,747.802 1747.75,779.69 1748.08,893.07 1748.42,910.786 1748.75,942.674 1749.42,1048.97 1749.76,1123.37 
  1750.09,1155.26 1750.42,1148.18 1750.76,1155.26 1751.09,1158.8 1751.43,1134 1751.76,1102.11 1752.1,960.39 1752.43,861.182 1752.76,705.285 1753.1,843.467 
  1753.43,875.355 1753.77,847.01 1754.1,836.38 1754.44,730.087 1754.77,797.406 1755.1,701.742 1755.44,786.777 1756.11,967.476 1756.44,1038.34 1757.11,1027.71 
  1757.44,1102.11 1757.78,1098.57 1758.11,1137.55 1758.45,1158.8 1758.78,1194.24 1759.12,1165.89 1759.45,1095.03 1760.12,1048.97 1760.45,946.217 1760.79,857.639 
  1761.12,924.958 1761.46,924.958 1761.79,1102.11 1762.13,875.355 1762.46,861.182 1762.79,854.096 1763.46,843.467 1763.8,783.233 1764.13,761.975 1764.47,999.364 
  1764.8,1041.88 1765.13,1052.51 1765.47,1148.18 1765.8,1134 1766.14,1176.52 1766.47,1180.06 1766.81,1222.58 1767.14,1204.86 1767.47,1148.18 1767.81,1059.6 
  1768.14,1024.17 1768.81,772.604 1769.15,790.32 1769.48,847.01 1769.82,843.467 1770.15,783.233 1770.48,811.578 1770.82,701.742 1771.15,630.879 1771.49,645.052 
  1771.82,676.94 1772.16,783.233 1772.49,1027.71 1773.49,1197.78 1773.83,1236.75 1774.16,1265.1 1774.5,1240.3 1774.83,1268.64 1775.16,1261.55 1775.5,1187.15 
  1775.83,1158.8 1776.17,1048.97 1776.5,960.39 1776.84,864.725 1777.17,754.888 1777.51,861.182 1777.84,815.122 1778.17,793.863 1778.51,815.122 1778.84,822.208 
  1779.18,783.233 1779.51,797.406 1779.85,924.958 1780.18,882.441 1780.51,1017.08 1780.85,1070.23 1781.18,1098.57 1781.52,1141.09 1781.85,1151.72 1782.19,1183.61 
  1782.52,1219.04 1782.85,1215.49 1783.19,1240.3 1783.52,1095.03 1783.86,1187.15 1784.19,1126.92 1784.53,1056.05 1784.86,921.415 1785.19,942.674 1785.53,946.217 
  1785.86,903.7 1786.2,885.984 1786.53,896.613 1786.87,825.751 1787.54,726.543 1787.87,723 1788.2,708.828 1788.54,790.32 1789.21,1009.99 1789.54,1091.49 
  1789.88,1141.09 1790.21,1190.69 1790.54,1211.95 1790.88,1208.41 1791.21,1180.06 1791.55,1197.78 1791.88,1165.89 1792.22,1137.55 1792.55,1041.88 1792.88,932.045 
  1793.22,882.441 1793.55,861.182 1793.89,942.674 1794.22,882.441 1794.56,932.045 1794.89,818.665 1795.22,882.441 1795.56,1031.25 1795.89,889.527 1796.23,800.949 
  1796.56,900.156 1796.9,946.217 1797.23,1059.6 1798.23,1250.93 1798.57,1268.64 1798.9,1275.73 1799.24,1272.18 1799.57,1279.27 1799.91,1215.49 1800.24,1204.86 
  1800.57,1169.43 1800.91,1116.29 1801.24,1045.42 1801.58,921.415 1801.91,815.122 1802.25,761.975 1802.58,832.837 1802.91,1013.54 1803.25,960.39 1803.58,942.674 
  1803.92,963.933 1804.25,985.191 1804.92,1172.98 1805.26,1148.18 1805.59,1197.78 1805.92,1215.49 1806.26,1300.53 1806.59,1339.5 1806.93,1335.96 1807.26,1318.24 
  1807.6,1219.04 1807.93,1194.24 1808.26,1098.57 1808.6,1073.77 1808.93,1002.91 1809.27,1038.34 1809.6,1119.83 1809.94,1119.83 1810.27,1052.51 1810.6,985.191 
  1810.94,978.105 1811.27,1024.17 1811.61,942.674 1812.28,949.76 1812.61,1009.99 1812.94,1084.4 1813.61,1187.15 1813.95,1137.55 1814.28,1187.15 1814.62,1187.15 
  1814.95,1233.21 1815.29,1229.67 1815.62,1144.63 1815.95,1144.63 1816.29,1017.08 1816.62,1048.97 1816.96,953.303 1817.29,1009.99 1817.63,1066.68 1817.96,1091.49 
  1818.29,1126.92 1818.63,1095.03 1818.96,1017.08 1819.3,995.821 1819.63,1059.6 1819.97,988.735 1820.3,953.303 1820.63,1013.54 1820.97,1002.91 1821.64,1073.77 
  1821.97,1148.18 1822.31,1162.35 1822.64,1194.24 1822.97,1169.43 1823.31,1197.78 1823.64,1105.66 1823.98,1226.12 1824.31,1070.23 1824.65,1027.71 1825.32,1006.45 
  1825.65,1073.77 1825.98,1187.15 1826.32,1204.86 1826.65,1063.14 1826.99,1024.17 1827.32,932.045 1827.66,889.527 1827.99,761.975 1828.32,776.147 1828.66,779.69 
  1828.99,974.562 1829.33,1084.4 1830,1194.24 1830.33,1219.04 1830.66,1243.84 1831,1229.67 1831.33,1233.21 1831.67,1126.92 1832,1119.83 1832.34,1080.86 
  1832.67,1080.86 1833,1024.17 1833.34,999.364 1833.67,1020.62 1834.01,1116.29 1834.34,1052.51 1834.68,1048.97 1835.01,1013.54 1835.35,917.872 1835.68,939.131 
  1836.01,900.156 1836.35,889.527 1836.68,914.329 1837.02,1038.34 1837.35,1080.86 1837.69,1134 1838.02,1151.72 1838.35,1204.86 1838.69,1197.78 1839.02,1194.24 
  1839.36,1219.04 1840.03,1155.26 1840.36,1098.57 1840.69,1034.8 1841.36,1013.54 1841.7,992.278 1842.03,1013.54 1842.37,995.821 1842.7,1031.25 1843.04,946.217 
  1843.37,1006.45 1843.7,942.674 1844.04,907.243 1844.37,804.492 1844.71,797.406 1845.04,889.527 1845.38,974.562 1845.71,1017.08 1846.38,1130.46 1846.71,1141.09 
  1847.05,1155.26 1847.38,1141.09 1847.72,1130.46 1848.05,1134 1848.38,1084.4 1848.72,1034.8 1849.05,981.648 1849.39,1017.08 1849.72,1048.97 1850.06,1045.42 
  1850.39,1070.23 1850.72,1080.86 1851.06,1087.94 1851.39,1102.11 1851.73,988.735 1852.06,921.415 1852.4,864.725 1852.73,723 1853.07,769.061 1853.4,889.527 
  1854.07,1052.51 1854.4,1112.74 1854.74,1137.55 1855.07,1194.24 1855.41,1180.06 1855.74,1155.26 1856.07,1151.72 1856.41,1123.37 1856.74,1137.55 1857.08,1095.03 
  1857.41,1070.23 1857.75,1020.62 1858.08,1098.57 1858.41,1137.55 1858.75,1059.6 1859.08,1017.08 1859.42,921.415 1860.09,981.648 1860.42,928.501 1860.75,1045.42 
  1861.09,1017.08 1861.42,1031.25 1861.76,1052.51 1862.09,1084.4 1862.43,1155.26 1862.76,1201.32 1863.1,1258.01 1863.76,1215.49 1864.1,1272.18 1864.43,1183.61 
  1864.77,1169.43 1865.1,1102.11 1865.44,1095.03 1865.77,1084.4 1866.1,1063.14 1866.44,1045.42 1866.77,1105.66 1867.11,1066.68 1867.44,1031.25 1867.78,1095.03 
  1868.11,1031.25 1868.44,999.364 1869.11,992.278 1869.45,985.191 1869.78,1020.62 1870.12,1070.23 1870.45,1172.98 1870.78,1155.26 1871.12,1272.18 1871.45,1265.1 
  1871.79,1293.44 1872.12,1240.3 1872.46,1215.49 1872.79,1204.86 1873.46,1204.86 1873.79,1126.92 1874.13,1233.21 1874.46,1219.04 1874.8,1155.26 1875.13,1095.03 
  1875.47,1041.88 1875.8,1073.77 1876.47,967.476 1877.14,900.156 1877.47,978.105 1877.81,1059.6 1878.14,1134 1878.47,1148.18 1879.14,1236.75 1879.48,1233.21 
  1879.81,1222.58 1880.15,1240.3 1880.48,1222.58 1880.82,1211.95 1881.15,1169.43 1881.48,1048.97 1881.82,985.191 1882.15,1006.45 1882.49,1169.43 1882.82,1134 
  1883.16,1087.94 1883.49,1048.97 1883.82,1038.34 1884.16,1013.54 1884.49,981.648 1884.83,1013.54 1885.16,1034.8 1885.5,1031.25 1885.83,1112.74 1886.16,1134 
  1886.5,1226.12 1886.83,1275.73 1887.17,1258.01 1887.5,1258.01 1887.84,1289.9 1888.17,1211.95 1888.5,1194.24 1888.84,1123.37 1889.17,1073.77 1889.51,1056.05 
  1889.84,1158.8 1890.18,1176.52 1890.51,1080.86 1890.85,1045.42 1891.18,974.562 1891.51,1041.88 1891.85,1041.88 1892.18,1109.2 1892.52,1126.92 1893.19,1109.2 
  1893.52,1180.06 1893.85,1229.67 1894.19,1265.1 1894.52,1325.33 1894.86,1364.31 1895.19,1382.02 1895.53,1346.59 1895.86,1357.22 1896.19,1328.87 1896.53,1254.47 
  1896.86,1222.58 1897.2,1219.04 1897.53,1233.21 1897.87,1148.18 1898.2,1095.03 1898.53,1038.34 1898.87,1027.71 1899.2,1095.03 1899.54,1073.77 1899.87,1020.62 
  1900.21,935.588 1900.88,917.872 1901.21,1017.08 1901.54,1098.57 1901.88,1176.52 1902.21,1247.38 1902.55,1272.18 1902.88,1279.27 1903.22,1339.5 1903.55,1371.39 
  1903.88,1339.5 1904.22,1293.44 1904.55,1272.18 1904.89,1233.21 1905.22,1204.86 1905.56,1204.86 1905.89,1165.89 1906.22,1183.61 1906.56,1172.98 1907.23,1070.23 
  1907.56,1013.54 1908.23,960.39 1909.23,992.278 1909.57,1084.4 1910.24,1194.24 1910.57,1222.58 1910.91,1265.1 1911.24,1279.27 1911.57,1325.33 1911.91,1286.36 
  1912.24,1233.21 1912.91,1165.89 1913.25,1087.94 1913.58,1013.54 1913.91,1059.6 1914.25,1009.99 1914.58,1006.45 1914.92,1034.8 1915.25,1017.08 1915.59,875.355 
  1915.92,875.355 1916.25,910.786 1916.59,939.131 1916.92,988.735 1917.26,1027.71 1917.59,1027.71 1917.93,1070.23 1918.26,1155.26 1918.6,1165.89 1918.93,1190.69 
  1919.26,1240.3 1919.6,1243.84 1919.93,1226.12 1920.27,1172.98 1920.6,1183.61 1920.94,1187.15 1921.27,1095.03 1921.6,1130.46 1921.94,1098.57 1922.27,1126.92 
  1922.61,1148.18 1922.94,1041.88 1923.28,971.019 1923.61,1017.08 1923.94,978.105 1924.28,1006.45 1924.61,932.045 1924.95,974.562 1925.28,967.476 1925.62,917.872 
  1925.95,1009.99 1926.28,992.278 1926.62,1073.77 1926.95,1098.57 1927.29,1183.61 1927.62,1250.93 1927.96,1229.67 1928.63,1226.12 1928.96,1272.18 1929.29,1229.67 
  1929.96,1165.89 1930.3,1201.32 1930.63,1165.89 1930.97,1095.03 1931.3,1056.05 1931.63,1041.88 1931.97,1006.45 1932.3,1059.6 1932.64,1066.68 1932.97,1098.57 
  1933.31,1172.98 1933.64,1165.89 1933.97,1197.78 1934.31,1226.12 1934.64,1265.1 1934.98,1275.73 1935.31,1254.47 1935.65,1247.38 1935.98,1261.55 1936.31,1180.06 
  1936.65,1148.18 1936.98,1098.57 1937.32,1112.74 1937.65,1105.66 1937.99,1126.92 1938.32,1197.78 1938.66,1197.78 1938.99,1190.69 1939.99,1144.63 1940.33,917.872 
  1940.66,910.786 1941,1052.51 1941.33,1087.94 1941.66,1169.43 1942,1151.72 1942.33,1215.49 1942.67,1226.12 1943,1304.07 1943.34,1332.42 1943.67,1346.59 
  1944,1311.16 1944.34,1201.32 1944.67,1148.18 1945.01,1080.86 1945.34,1098.57 1945.68,1087.94 1946.01,1116.29 1946.35,1056.05 1947.01,1020.62 1947.35,1095.03 
  1947.68,992.278 1948.02,978.105 1948.35,850.553 1948.69,815.122 1949.35,1009.99 1949.69,1098.57 1950.02,1134 1950.36,1194.24 1950.69,1219.04 1951.03,1229.67 
  1951.36,1286.36 1951.69,1272.18 1952.03,1282.81 1952.36,1247.38 1952.7,1201.32 1953.03,1080.86 1953.37,1066.68 1953.7,1059.6 1954.03,1119.83 1955.04,1126.92 
  1955.37,1027.71 1955.71,1009.99 1956.04,1009.99 1956.38,924.958 1956.71,914.329 1957.38,847.01 1957.71,900.156 1958.05,960.39 1958.38,1066.68 1958.72,1204.86 
  1959.05,1236.75 1959.38,1314.7 1959.72,1307.62 1960.05,1300.53 1960.39,1293.44 1961.06,1243.84 1961.39,1172.98 1961.72,1141.09 1962.06,1126.92 1962.39,1123.37 
  1962.73,1112.74 1963.06,1080.86 1963.4,1105.66 1963.73,1070.23 1964.06,1041.88 1964.4,942.674 1968.75,1275.73 1969.08,1265.1 1969.41,1172.98 1969.75,1123.37 
  1970.08,1126.92 1970.42,1112.74 1970.75,1070.23 1971.42,1151.72 1971.75,1176.52 1972.09,1134 1972.42,1105.66 1972.76,1073.77 1973.09,1187.15 1973.43,1286.36 
  1974.09,1350.13 1974.43,1399.74 1974.76,1374.93 1975.43,1396.19 1975.77,1374.93 1976.1,1296.99 1976.44,1346.59 1976.77,1201.32 1977.1,1105.66 1977.44,1038.34 
  1977.77,1059.6 1978.11,1119.83 1978.44,1130.46 1978.78,1091.49 1979.11,1098.57 1979.44,967.476 1979.78,1112.74 1980.11,1087.94 1980.45,1098.57 1980.78,1095.03 
  1981.12,1126.92 1981.45,1229.67 1981.78,1286.36 1982.12,1304.07 1982.45,1357.22 1982.79,1360.76 1983.46,1374.93 1983.79,1389.11 1984.13,1293.44 1984.46,1293.44 
  1984.79,1254.47 1985.13,1265.1 1985.8,1155.26 1986.13,1148.18 1986.47,1194.24 1986.8,1197.78 1987.13,1109.2 1987.47,1070.23 1987.8,1134 1988.14,1095.03 
  1988.47,1155.26 1988.81,1109.2 1989.14,1095.03 1989.47,1169.43 1989.81,1208.41 1990.14,1250.93 1990.48,1328.87 1990.81,1332.42 1991.15,1353.68 1991.48,1350.13 
  1991.81,1343.05 1992.15,1243.84 1992.48,1272.18 1992.82,1211.95 1993.15,1233.21 1993.49,1063.14 1993.82,1105.66 1994.16,1183.61 1994.49,1272.18 1994.82,1165.89 
  1995.49,1155.26 1995.83,1027.71 1996.16,1080.86 1996.5,1045.42 1996.83,1119.83 1997.16,1119.83 1997.5,1176.52 1997.83,1233.21 1998.84,1311.16 1999.17,1357.22 
  1999.5,1350.13 1999.84,1357.22 2000.17,1250.93 2000.51,1318.24 2000.84,1286.36 2001.18,1208.41 2001.51,1151.72 2001.84,978.105 2002.18,1116.29 2002.51,1176.52 
  2002.85,1148.18 2003.18,1141.09 2003.52,1091.49 2003.85,1066.68 2004.52,960.39 2004.85,1027.71 2005.19,1105.66 2005.86,1243.84 2006.19,1300.53 2006.53,1332.42 
  2006.86,1328.87 2007.19,1335.96 2007.53,1360.76 2007.86,1314.7 2008.2,1300.53 2008.53,1236.75 2008.87,1190.69 2009.2,1197.78 2009.53,1130.46 2010.2,1208.41 
  2010.54,1172.98 2011.21,1112.74 2011.54,1070.23 2011.88,1017.08 2012.21,995.821 2012.54,960.39 2013.21,949.76 2013.55,921.415 2013.88,1070.23 2014.22,1141.09 
  2014.55,1197.78 2014.88,1307.62 2015.55,1389.11 2015.89,1371.39 2016.22,1360.76 2016.56,1300.53 2016.89,1261.55 2017.22,1279.27 2017.56,1233.21 2017.89,1169.43 
  2018.23,1190.69 2018.56,1155.26 2018.9,1208.41 2019.23,1211.95 2019.56,1211.95 2019.9,1176.52 2020.23,1165.89 2020.57,1031.25 2021.24,1041.88 2021.57,1031.25 
  2021.91,1109.2 2022.24,1247.38 2022.57,1272.18 2022.91,1321.79 2023.24,1343.05 2023.58,1392.65 2023.91,1399.74 2024.25,1378.48 2024.58,1357.22 2024.91,1343.05 
  2025.25,1286.36 2025.58,1204.86 2025.92,1151.72 2026.25,1208.41 2026.59,1226.12 2026.92,1172.98 2027.25,1112.74 2027.59,1116.29 2027.92,1158.8 2028.26,1080.86 
  2028.59,1052.51 2028.93,1087.94 2029.26,1126.92 2029.59,1190.69 2029.93,1240.3 2030.26,1279.27 2030.6,1346.59 2030.93,1385.56 2031.27,1350.13 2031.6,1360.76 
  2031.94,1403.28 2032.27,1222.58 2032.6,1233.21 2032.94,1158.8 2033.27,1187.15 2033.61,1059.6 2033.94,1109.2 2034.28,1087.94 2034.94,1102.11 2035.61,1020.62 
  2035.95,1038.34 2036.28,1024.17 2036.62,939.131 2036.95,1009.99 2037.62,1137.55 2037.95,1261.55 2038.29,1275.73 2038.62,1307.62 2038.96,1318.24 2039.29,1293.44 
  2039.96,1350.13 2040.29,1243.84 2040.63,1265.1 2040.96,1233.21 2041.3,1258.01 2041.63,1048.97 2041.97,1155.26 2042.3,1112.74 2042.63,1130.46 2042.97,1091.49 
  2043.3,1098.57 2043.64,988.735 2043.97,1009.99 2044.64,1087.94 2044.97,1041.88 2045.31,1130.46 2045.64,1109.2 2046.31,1176.52 2046.65,1226.12 2046.98,1219.04 
  2047.31,1254.47 2047.65,1289.9 2047.98,1307.62 2048.32,1197.78 2048.65,1282.81 2048.99,1158.8 2049.32,1123.37 2049.66,967.476 2049.99,1063.14 2050.32,1002.91 
  2050.66,1095.03 2050.99,1123.37 2051.33,1066.68 2051.66,992.278 2052,971.019 2052.33,999.364 2052.66,893.07 2053,868.268 2053.33,1013.54 2053.67,1080.86 
  2054,1169.43 2054.34,1254.47 2054.67,1307.62 2055,1282.81 2055.34,1318.24 2055.67,1371.39 2056.01,1343.05 2056.34,1279.27 2056.68,1254.47 2057.34,1144.63 
  2057.68,1165.89 2058.35,1116.29 2058.68,1222.58 2059.02,1102.11 2059.35,1045.42 2059.69,1105.66 2060.02,1098.57 2060.35,995.821 2060.69,1048.97 2061.02,1080.86 
  2061.69,1123.37 2062.03,1268.64 2062.36,1222.58 2062.69,1258.01 2063.03,1300.53 2063.36,1300.53 2063.7,1304.07 2064.03,1272.18 2064.37,1151.72 2064.7,1265.1 
  2065.03,1148.18 2065.37,1116.29 2065.7,1056.05 2066.04,1048.97 2066.37,953.303 2066.71,928.501 2067.04,1056.05 2067.37,1027.71 2067.71,1045.42 2068.04,1027.71 
  2068.38,1002.91 2069.05,910.786 2069.38,864.725 2069.72,949.76 2070.05,1073.77 2070.38,1084.4 2070.72,1116.29 2071.05,1201.32 2071.39,1233.21 2071.72,1240.3 
  2072.06,1222.58 2072.39,1300.53 2072.72,1222.58 2073.06,1233.21 2073.39,1151.72 2073.73,1098.57 2074.06,1119.83 2074.4,1109.2 2074.73,1116.29 2075.06,1162.35 
  2075.4,1144.63 2075.73,1126.92 2076.07,1084.4 2076.4,1048.97 2076.74,910.786 2077.07,889.527 2077.4,832.837 2077.74,928.501 2078.07,995.821 2078.41,1087.94 
  2078.74,1162.35 2079.08,1165.89 2079.41,1222.58 2079.75,1258.01 2080.08,1250.93 2080.41,1265.1 2080.75,1194.24 2081.08,1211.95 2081.42,1151.72 2081.75,1070.23 
  2082.09,992.278 2082.42,1123.37 2082.75,1048.97 2083.09,1017.08 2083.42,1059.6 2083.76,1066.68 2084.09,1017.08 2084.43,1041.88 2085.09,1130.46 2085.43,1169.43 
  2085.76,1201.32 2086.1,1261.55 2086.43,1328.87 2086.77,1343.05 2087.1,1396.19 2087.44,1364.31 2087.77,1357.22 2088.1,1382.02 2088.44,1268.64 2088.77,1187.15 
  2089.11,1073.77 2089.44,1070.23 2089.78,1031.25 2090.11,1109.2 2090.44,1109.2 2090.78,1084.4 2091.11,1017.08 2091.45,1017.08 2091.78,1059.6 2092.12,1031.25 
  2092.45,1002.91 2093.12,1109.2 2093.45,1087.94 2093.79,1112.74 2094.12,1126.92 2094.46,1204.86 2094.79,1236.75 2095.12,1293.44 2095.46,1289.9 2095.79,1314.7 
  2096.13,1268.64 2096.46,1134 2096.8,1187.15 2097.13,1137.55 2097.47,1162.35 2098.13,1165.89 2098.47,1063.14 2099.14,1070.23 2099.47,992.278 2099.81,1056.05 
  2100.47,985.191 2100.81,946.217 2101.14,1020.62 2101.48,985.191 2101.81,1091.49 2102.15,1197.78 2102.48,1272.18 2102.81,1311.16 2103.15,1289.9 2103.48,1289.9 
  2103.82,1304.07 2104.15,1293.44 2104.49,1144.63 2104.82,1250.93 2105.15,1116.29 2105.82,1006.45 2106.16,1002.91 2106.49,1009.99 2106.83,992.278 2107.16,1073.77 
  2107.5,1013.54 2107.83,1006.45 2108.16,939.131 2108.5,1002.91 2108.83,963.933 2109.17,1024.17 2110.17,1208.41 2110.5,1275.73 2110.84,1318.24 2111.17,1328.87 
  2111.51,1346.59 2111.84,1346.59 2112.18,1307.62 2112.51,1243.84 2112.84,1240.3 2113.18,1109.2 2113.51,1095.03 2113.85,942.674 2114.18,956.846 2114.52,953.303 
  2114.85,1009.99 2115.18,1038.34 2115.85,949.76 2116.52,808.035 2116.86,967.476 2117.19,946.217 2117.53,1066.68 2117.86,1098.57 2118.19,1158.8 2118.53,1158.8 
  2118.86,1261.55 2119.2,1282.81 2119.53,1265.1 2119.87,1279.27 2120.2,1250.93 2120.53,1151.72 2120.87,1155.26 2121.2,1045.42 2121.54,1109.2 2121.87,1048.97 
  2122.21,1017.08 2122.54,935.588 2122.87,1009.99 2123.21,981.648 2123.54,995.821 2123.88,893.07 2124.21,903.7 2124.55,995.821 2124.88,1031.25 2125.55,939.131 
  2125.88,1048.97 2126.22,1073.77 2126.55,1137.55 2126.89,1137.55 2127.22,1141.09 2127.56,1176.52 2127.89,1151.72 2128.22,1183.61 2128.56,1162.35 2128.89,1137.55 
  2129.23,1087.94 2129.56,1048.97 2129.9,963.933 2130.23,953.303 2130.9,921.415 2131.23,963.933 2131.57,896.613 2131.9,910.786 2132.24,861.182 2132.57,864.725 
  2132.9,917.872 2133.24,864.725 2133.57,932.045 2133.91,921.415 2134.24,1002.91 2134.58,1013.54 2134.91,1031.25 2135.25,1098.57 2135.58,1123.37 2135.91,1144.63 
  2136.25,1134 2136.58,1087.94 2136.92,1109.2 2137.25,1112.74 2137.59,1048.97 2137.92,1048.97 2138.25,956.846 2138.59,956.846 2138.92,924.958 2139.26,953.303 
  2139.59,963.933 2139.93,1038.34 2140.26,992.278 2140.59,1073.77 2140.93,1084.4 2141.26,1066.68 2141.6,1095.03 2141.93,1087.94 2142.27,1141.09 2142.6,1144.63 
  2142.93,1215.49 2143.27,1243.84 2143.6,1250.93 2143.94,1258.01 2144.27,1211.95 2144.61,1169.43 2144.94,1144.63 2145.28,1087.94 2145.61,1077.31 2145.94,981.648 
  2146.28,956.846 2146.61,1038.34 2146.95,988.735 2147.28,1013.54 2147.62,1048.97 2147.95,995.821 2148.28,974.562 2148.62,875.355 2148.95,903.7 2149.29,985.191 
  2149.62,1017.08 2149.96,1134 2150.29,1151.72 2150.96,1229.67 2151.29,1233.21 2151.63,1261.55 2151.96,1321.79 2152.63,1155.26 2152.97,1190.69 2153.3,1095.03 
  2153.63,1144.63 2153.97,1063.14 2154.3,1155.26 2154.64,1102.11 2154.97,1194.24 2155.31,1211.95 2155.64,1126.92 2155.97,1031.25 2156.31,1013.54 2156.98,914.329 
  2157.98,1027.71 2158.31,1105.66 2158.65,1176.52 2158.98,1240.3 2159.32,1247.38 2159.65,1268.64 2159.99,1321.79 2160.65,1172.98 2160.99,1226.12 2161.32,1098.57 
  2161.66,1056.05 2161.99,956.846 2162.33,1052.51 2162.66,999.364 2163.33,1059.6 2163.66,1059.6 2164,1056.05 2164.33,847.01 2165,800.949 2165.34,839.923 
  2165.67,907.243 2166,1087.94 2166.34,1123.37 2166.67,1134 2167.01,1180.06 2167.34,1169.43 2167.68,1240.3 2168.01,1247.38 2168.34,1254.47 2169.01,1215.49 
  2169.35,1123.37 2169.68,981.648 2170.02,1002.91 2170.35,1045.42 2170.68,1034.8 2171.02,1066.68 2171.35,988.735 2171.69,995.821 2172.02,960.39 2172.36,960.39 
  2173.03,932.045 2173.36,999.364 2173.69,1073.77 2174.03,1180.06 2174.36,1233.21 2174.7,1250.93 2175.03,1289.9 2175.37,1307.62 2175.7,1332.42 2176.03,1332.42 
  2176.37,1289.9 2176.7,1187.15 2177.04,1229.67 2177.37,1229.67 2177.71,1204.86 2178.04,1123.37 2178.37,1180.06 2178.71,1190.69 2179.04,1215.49 2179.71,1027.71 
  2180.05,1024.17 2180.38,1020.62 2180.71,861.182 2181.05,808.035 2181.38,935.588 2181.72,942.674 2182.05,1038.34 2182.39,985.191 2182.72,1102.11 2183.06,1105.66 
  2183.39,1204.86 2183.72,1211.95 2184.06,1208.41 2184.39,1258.01 2184.73,1229.67 2185.06,1197.78 2185.4,1176.52 2185.73,1116.29 2186.06,1059.6 2186.4,1052.51 
  2186.73,1024.17 2187.07,1020.62 2187.4,985.191 2187.74,1073.77 2188.07,939.131 2188.4,861.182 2188.74,914.329 2189.07,790.32 2189.74,719.457 2190.08,843.467 
  2190.41,836.38 2190.75,1024.17 2191.08,1123.37 2191.75,1229.67 2192.08,1258.01 2192.42,1279.27 2192.75,1265.1 2193.09,1226.12 2193.42,1169.43 2193.75,1027.71 
  2194.09,1070.23 2194.42,995.821 2194.76,1052.51 2195.09,1098.57 2195.43,1116.29 2195.76,1098.57 2196.09,1027.71 2196.76,875.355 2197.43,1002.91 2198.1,1041.88 
  2198.43,1158.8 2198.77,1215.49 2199.1,1165.89 2199.44,1258.01 2199.77,1243.84 2200.11,1300.53 2200.44,1258.01 2200.78,1141.09 2201.11,1176.52 2201.44,1126.92 
  2201.78,1066.68 2202.45,1063.14 2202.78,1080.86 2203.12,995.821 2203.45,985.191 2203.78,861.182 2204.12,893.07 2204.45,949.76 2204.79,985.191 2205.12,981.648 
  2205.46,967.476 2206.12,1116.29 2206.79,1258.01 2207.13,1275.73 2207.46,1286.36 2207.8,1268.64 2208.13,1321.79 2208.46,1314.7 2208.8,1176.52 2209.13,1219.04 
  2209.47,1119.83 2210.14,1073.77 2210.47,1066.68 2210.81,1059.6 2211.14,1084.4 2211.47,1095.03 2211.81,1063.14 2212.14,1052.51 2212.48,917.872 2212.81,836.38 
  2213.15,864.725 2213.48,910.786 2213.81,900.156 2214.15,978.105 2214.48,1024.17 2214.82,1077.31 2215.15,1158.8 2215.49,1176.52 2215.82,1215.49 2216.15,1215.49 
  2216.49,1211.95 2216.82,1119.83 2217.16,1148.18 2217.49,932.045 2217.83,981.648 2218.16,914.329 2218.83,999.364 2219.16,1070.23 2219.5,1027.71 2219.83,1017.08 
  2220.17,1027.71 2220.5,924.958 2220.84,744.259 2221.5,868.268 2221.84,949.76 2222.17,1098.57 2222.51,1155.26 2222.84,1233.21 2223.18,1240.3 2223.51,1279.27 
  2223.84,1304.07 2224.51,1254.47 2224.85,1162.35 2225.18,1261.55 2225.52,1169.43 2226.85,1048.97 2227.19,1091.49 2227.52,1073.77 2227.86,963.933 2228.19,1020.62 
  2228.53,822.208 2228.86,836.38 2229.19,857.639 2229.53,935.588 2230.2,1006.45 2230.53,1091.49 2230.87,1144.63 2231.2,1190.69 2231.53,1236.75 2231.87,1222.58 
  2232.2,1272.18 2232.87,1091.49 2233.21,1233.21 2233.54,1208.41 2233.87,1130.46 2234.21,1102.11 2234.54,1123.37 2234.88,1073.77 2235.55,1095.03 2235.88,1087.94 
  2236.21,1073.77 2236.55,907.243 2236.88,825.751 2237.22,769.061 2237.55,761.975 2237.89,751.345 2238.22,878.898 2238.56,1020.62 2238.89,1048.97 2239.22,1098.57 
  2239.56,1134 2239.89,1155.26 2240.23,1151.72 2240.56,1151.72 2240.9,1116.29 2241.23,1102.11 2241.56,1095.03 2241.9,1102.11 2242.23,995.821 2242.57,967.476 
  2242.9,910.786 2243.24,995.821 2243.57,1041.88 2243.9,963.933 2244.24,949.76 2244.57,917.872 2244.91,896.613 2245.24,723 2245.58,783.233 2245.91,843.467 
  2246.24,882.441 2246.58,949.76 2246.91,917.872 2247.25,1027.71 2247.58,1116.29 2247.92,1123.37 2248.25,1165.89 2248.59,1172.98 2248.92,1151.72 2249.25,1091.49 
  2249.59,1087.94 2250.26,1027.71 2250.59,971.019 2250.93,978.105 2251.26,999.364 2251.59,1056.05 2251.93,1056.05 2252.26,1144.63 2252.6,978.105 2252.93,981.648 
  2253.27,893.07 2253.93,1041.88 2254.27,1137.55 2254.6,1265.1 2254.94,1307.62 2255.27,1289.9 2255.61,1254.47 2255.94,1268.64 2256.61,1268.64 2256.94,1243.84 
  2257.28,1197.78 2257.61,1080.86 2257.95,1020.62 2258.28,1027.71 2258.95,1080.86 2259.28,1045.42 2259.62,967.476 2259.95,1038.34 2260.29,1020.62 2260.62,900.156 
  2260.96,942.674 2261.29,924.958 2261.62,992.278 2261.96,1066.68 2262.29,1102.11 
  "/>
<polygon clip-path="url(#clip1201)" points="
1701.59,330.464 2249.26,330.464 2249.26,209.504 1701.59,209.504 
  " fill="#ffffff" fill-rule="evenodd" fill-opacity="1"/>
<polyline clip-path="url(#clip1201)" style="stroke:#000000; stroke-width:4; stroke-opacity:1; fill:none" points="
  1701.59,330.464 2249.26,330.464 2249.26,209.504 1701.59,209.504 1701.59,330.464 
  "/>
<polyline clip-path="url(#clip1201)" style="stroke:#008000; stroke-width:4; stroke-opacity:1; fill:none" points="
  1725.59,269.984 1869.59,269.984 
  "/>
<g clip-path="url(#clip1201)">
<text style="fill:#000000; fill-opacity:1; font-family:Arial,Helvetica Neue,Helvetica,sans-serif; font-size:48px; text-anchor:start;" transform="rotate(0, 1893.59, 287.484)" x="1893.59" y="287.484">Nutzer/Stunde</text>
</g>
</svg>
